<svg width="19" height="18" viewBox="0 0 19 18" fill="none" xmlns="http://www.w3.org/2000/svg">
<g opacity="0.9" clip-path="url(#clip0_1_970)">
<path d="M16.3791 14.0277C16.1069 14.6566 15.7847 15.2355 15.4114 15.7677C14.9025 16.4932 14.4859 16.9954 14.1648 17.2743C13.667 17.732 13.1337 17.9665 12.5626 17.9798C12.1526 17.9798 11.6582 17.8632 11.0826 17.6265C10.5052 17.3909 9.97455 17.2743 9.48935 17.2743C8.98047 17.2743 8.43471 17.3909 7.85096 17.6265C7.26631 17.8632 6.79532 17.9865 6.43522 17.9987C5.88757 18.022 5.3417 17.7809 4.79683 17.2743C4.44906 16.971 4.01408 16.451 3.49298 15.7143C2.93389 14.9277 2.47424 14.0155 2.11414 12.9755C1.72848 11.8522 1.53516 10.7645 1.53516 9.7114C1.53516 8.5051 1.79581 7.46469 2.31791 6.59283C2.72823 5.89251 3.2741 5.34009 3.9573 4.93454C4.6405 4.529 5.3787 4.32234 6.17368 4.30912C6.60866 4.30912 7.17909 4.44367 7.88795 4.70811C8.59482 4.97343 9.04869 5.10798 9.24769 5.10798C9.39646 5.10798 9.90067 4.95065 10.7554 4.637C11.5637 4.34612 12.2459 4.22568 12.8048 4.27312C14.3192 4.39534 15.4569 4.99232 16.2136 6.06784C14.8592 6.88848 14.1892 8.03789 14.2025 9.5124C14.2148 10.6609 14.6314 11.6167 15.4503 12.3755C15.8214 12.7278 16.2358 13 16.6969 13.1933C16.5969 13.4833 16.4913 13.7611 16.3791 14.0277ZM12.9059 0.360347C12.9059 1.26055 12.577 2.10107 11.9215 2.87905C11.1304 3.80391 10.1735 4.33834 9.13591 4.25401C9.12269 4.14601 9.11503 4.03235 9.11503 3.91291C9.11503 3.04871 9.49123 2.12385 10.1593 1.36765C10.4929 0.984772 10.9171 0.666415 11.4315 0.412456C11.9448 0.162285 12.4304 0.0239359 12.887 0.000244141C12.9003 0.120588 12.9059 0.240939 12.9059 0.360335V0.360347Z" fill="black"/>
</g>
<defs>
<clipPath id="clip0_1_970">
<rect width="18" height="18" fill="white" transform="translate(0.0351562)"/>
</clipPath>
</defs>
</svg>
