<svg width="19" height="18" viewBox="0 0 19 18" fill="none" xmlns="http://www.w3.org/2000/svg">
<g opacity="0.9" clip-path="url(#clip0_1_968)">
<path d="M18.0352 9C18.0352 4.02948 14.0057 0 9.03516 0C4.06464 0 0.0351562 4.02948 0.0351562 9C0.0351562 13.2206 2.94108 16.7623 6.86112 17.735V11.7504H5.00532V9H6.86112V7.81488C6.86112 4.75164 8.24748 3.3318 11.2549 3.3318C11.8252 3.3318 12.809 3.44376 13.2115 3.55536V6.04836C12.9991 6.02604 12.6301 6.01488 12.1718 6.01488C10.6962 6.01488 10.126 6.57396 10.126 8.02728V9H13.0657L12.5606 11.7504H10.126V17.9341C14.5824 17.3959 18.0355 13.6015 18.0355 9H18.0352Z" fill="#0866FF"/>
<path d="M12.5602 11.7504L13.0653 8.99999H10.1255V8.02727C10.1255 6.57395 10.6958 6.01487 12.1714 6.01487C12.6297 6.01487 12.9987 6.02603 13.2111 6.04835V3.55535C12.8086 3.44339 11.8247 3.33179 11.2545 3.33179C8.24704 3.33179 6.86068 4.75163 6.86068 7.81487V8.99999H5.00488V11.7504H6.86068V17.735C7.55692 17.9078 8.2852 18 9.03472 18C9.40372 18 9.76768 17.9773 10.1252 17.9341V11.7504H12.5598H12.5602Z" fill="white"/>
</g>
<defs>
<clipPath id="clip0_1_968">
<rect width="18" height="18" fill="white" transform="translate(0.0351562)"/>
</clipPath>
</defs>
</svg>
