<svg width="19" height="18" viewBox="0 0 19 18" fill="none" xmlns="http://www.w3.org/2000/svg">
<g opacity="0.9" clip-path="url(#clip0_1_966)">
<path d="M9.03491 7.36365V10.8491H13.8785C13.6658 11.97 13.0276 12.9191 12.0703 13.5573L14.9912 15.8237C16.693 14.2528 17.6749 11.9455 17.6749 9.20465C17.6749 8.56648 17.6176 7.95278 17.5112 7.36375L9.03491 7.36365Z" fill="#4285F4"/>
<path d="M3.99112 10.713L3.33234 11.2173L1.00049 13.0336C2.48139 15.9709 5.51662 18 9.03478 18C11.4647 18 13.502 17.1982 14.9911 15.8237L12.0702 13.5573C11.2684 14.0973 10.2456 14.4246 9.03478 14.4246C6.69479 14.4246 4.70667 12.8455 3.9948 10.7182L3.99112 10.713Z" fill="#34A853"/>
<path d="M1.00054 4.96631C0.386938 6.17717 0.0351562 7.54355 0.0351562 8.99989C0.0351562 10.4562 0.386938 11.8226 1.00054 13.0335C1.00054 13.0416 3.99514 10.7098 3.99514 10.7098C3.81514 10.1698 3.70874 9.59715 3.70874 8.9998C3.70874 8.40245 3.81514 7.82975 3.99514 7.28976L1.00054 4.96631Z" fill="#FBBC05"/>
<path d="M9.03496 3.58363C10.3604 3.58363 11.5386 4.0418 12.4795 4.92545L15.0568 2.34821C13.494 0.891874 11.465 0 9.03496 0C5.51681 0 2.48139 2.02091 1.00049 4.96637L3.99499 7.29001C4.70677 5.16271 6.69498 3.58363 9.03496 3.58363Z" fill="#EA4335"/>
</g>
<defs>
<clipPath id="clip0_1_966">
<rect width="18" height="18" fill="white" transform="translate(0.0351562)"/>
</clipPath>
</defs>
</svg>
