<svg width="251" height="250" viewBox="0 0 251 250" fill="none" xmlns="http://www.w3.org/2000/svg">
<path d="M53.4654 204.7C95.5104 226.665 163.675 226.665 205.72 204.7C247.765 182.735 247.76 147.125 205.72 125.16C163.68 103.195 95.5104 103.195 53.4654 125.16C11.4204 147.125 11.4204 182.74 53.4654 204.7Z" fill="black" fill-opacity="0.03"/>
<path d="M213.535 187.95C204.24 192.385 189.17 192.385 179.87 187.95C170.57 183.515 170.575 176.34 179.87 171.905C189.165 167.47 204.24 167.475 213.535 171.905C222.83 176.335 222.85 183.5 213.535 187.95Z" fill="black" fill-opacity="0.07"/>
<path d="M85.4004 174L139.9 142.55C140.571 142.21 141.313 142.032 142.065 142.032C142.818 142.032 143.559 142.21 144.23 142.55L160.345 151.845C161.54 152.535 161.54 153.655 160.345 154.345L105.895 186C105.228 186.344 104.488 186.523 103.738 186.523C102.987 186.523 102.248 186.344 101.58 186L85.3904 176.5C84.2004 175.81 84.2054 174.68 85.4004 174Z" fill="black" fill-opacity="0.07"/>
<path d="M52.1103 184.735C52.1103 184.735 54.9703 185.545 55.8403 186.11C56.7103 186.675 55.1703 186.9 53.1953 186.61C54.2211 187.25 55.1882 187.98 56.0853 188.79C56.9953 189.73 54.5453 188.66 54.5453 188.66C54.5453 188.66 55.5453 191.335 54.2603 191.535C52.9753 191.735 50.6703 189.155 50.6703 189.155C50.6703 189.155 49.5853 190.5 49.2703 189.89C48.9553 189.28 49.2403 188.065 49.2403 188.065C48.3351 188.717 47.3899 189.311 46.4103 189.845C45.7253 190.115 45.9103 188.93 45.9103 188.93C45.9103 188.93 41.0003 190.265 40.4453 189.93C39.8903 189.595 42.1103 187.71 42.8953 187.105C42.8953 187.105 40.7353 186.9 41.1553 186.555C41.5753 186.21 43.4403 185.705 44.9403 185.465C44.9403 185.465 41.8403 185.09 41.5553 184.8C41.2703 184.51 42.7303 184.18 42.7303 184.18C42.7303 184.18 39.9753 182.995 40.3553 182.275C40.7353 181.555 44.8553 182.89 44.8553 182.89C44.8553 182.89 44.0803 182.045 44.8953 181.97C45.7103 181.895 48.8953 183.92 48.8953 183.92C48.8953 183.92 49.1603 182.155 49.9903 182.1C51.2203 182.025 52.1103 184.735 52.1103 184.735Z" fill="#73895D"/>
<path d="M41.535 189.615C41.509 189.614 41.4837 189.605 41.4624 189.59C41.4411 189.575 41.4247 189.554 41.415 189.53C41.4085 189.514 41.4051 189.497 41.405 189.48C41.405 189.463 41.4083 189.446 41.4148 189.43C41.4213 189.415 41.4309 189.4 41.4429 189.388C41.455 189.376 41.4693 189.367 41.485 189.36C41.54 189.36 46.985 187.125 52.03 184.615C57.075 182.105 58.85 180.45 58.87 180.43C58.8951 180.406 58.9282 180.393 58.9625 180.393C58.9969 180.393 59.03 180.406 59.055 180.43C59.0789 180.456 59.0922 180.49 59.0922 180.525C59.0922 180.56 59.0789 180.594 59.055 180.62C58.98 180.685 57.2 182.325 52.15 184.845C47.1 187.365 41.65 189.575 41.59 189.6L41.535 189.615Z" fill="#73895D"/>
<path d="M46.9655 188.85C46.9448 188.85 46.9246 188.845 46.9063 188.835C46.8881 188.826 46.8723 188.812 46.8605 188.795C46.8369 188.77 46.8238 188.737 46.8238 188.702C46.8238 188.668 46.8369 188.635 46.8605 188.61C47.6028 188.075 48.1825 187.344 48.5355 186.5L43.1005 186.64C43.066 186.64 43.0329 186.626 43.0085 186.602C42.9842 186.578 42.9705 186.544 42.9705 186.51C42.9704 186.475 42.984 186.441 43.0082 186.416C43.0325 186.391 43.0655 186.376 43.1005 186.375L48.8955 186.225L48.8505 186.395C48.514 187.373 47.8792 188.221 47.0355 188.82C47.0155 188.836 46.9912 188.847 46.9655 188.85Z" fill="#73895D"/>
<path d="M53.3249 190.64C53.2915 190.64 53.2592 190.628 53.2349 190.605C53.1099 190.485 50.2899 187.72 50.4449 185.605C47.4663 184.989 44.5495 184.105 41.7299 182.965C41.698 182.951 41.673 182.925 41.6604 182.893C41.6477 182.86 41.6484 182.824 41.6623 182.793C41.6763 182.761 41.7023 182.736 41.7346 182.723C41.767 182.71 41.803 182.711 41.8348 182.725C44.675 183.872 47.6139 184.757 50.6149 185.37H50.7349V185.495C50.4699 187.495 53.4049 190.385 53.4349 190.415C53.4584 190.44 53.4715 190.473 53.4715 190.508C53.4715 190.542 53.4584 190.575 53.4349 190.6C53.4207 190.615 53.4035 190.626 53.3844 190.633C53.3654 190.639 53.345 190.642 53.3249 190.64Z" fill="#73895D"/>
<path d="M47.695 184.895H43.785C43.7506 184.895 43.7175 184.881 43.6931 184.857C43.6687 184.833 43.655 184.8 43.655 184.765C43.655 184.731 43.6687 184.697 43.6931 184.673C43.7175 184.649 43.7506 184.635 43.785 184.635H47.285C46.8462 183.997 46.3155 183.428 45.71 182.945C45.6865 182.92 45.6734 182.887 45.6734 182.853C45.6734 182.818 45.6865 182.785 45.71 182.76C45.7221 182.748 45.7365 182.738 45.7524 182.731C45.7683 182.725 45.7853 182.721 45.8025 182.721C45.8197 182.721 45.8368 182.725 45.8527 182.731C45.8685 182.738 45.8829 182.748 45.895 182.76C46.475 183.26 47.46 184.21 47.63 184.76L47.695 184.895Z" fill="#73895D"/>
<path d="M50.1704 188.715H50.1154C50.0841 188.7 50.0599 188.673 50.0478 188.641C50.0356 188.608 50.0366 188.572 50.0504 188.54L50.8204 186.85H50.9154C52.0259 187.09 53.106 187.454 54.1354 187.935C54.1667 187.95 54.1913 187.977 54.2042 188.009C54.2172 188.041 54.2176 188.077 54.2054 188.11C54.1902 188.141 54.1635 188.165 54.1309 188.178C54.0983 188.19 54.0623 188.189 54.0304 188.175C53.0499 187.725 52.0263 187.374 50.9754 187.13L50.2904 188.63C50.2807 188.654 50.2643 188.675 50.243 188.69C50.2217 188.705 50.1965 188.714 50.1704 188.715Z" fill="#73895D"/>
<path d="M54.5353 186.315L50.4753 185.595L50.0653 183.24C50.0609 183.206 50.0699 183.171 50.0903 183.143C50.1108 183.115 50.1412 183.096 50.1753 183.09C50.1921 183.086 50.2095 183.086 50.2263 183.09C50.2431 183.093 50.2591 183.1 50.2732 183.11C50.2873 183.12 50.2991 183.132 50.3081 183.147C50.3171 183.162 50.3229 183.178 50.3253 183.195L50.7053 185.37L54.5803 186.06C54.5973 186.062 54.6137 186.068 54.6283 186.077C54.643 186.086 54.6556 186.098 54.6655 186.112C54.6753 186.126 54.6822 186.142 54.6856 186.159C54.689 186.176 54.6889 186.193 54.6853 186.21C54.6792 186.244 54.66 186.274 54.6319 186.293C54.6038 186.313 54.5691 186.321 54.5353 186.315Z" fill="#73895D"/>
<g opacity="0.1">
<path d="M41.535 189.615C41.509 189.614 41.4837 189.605 41.4624 189.59C41.4411 189.575 41.4247 189.554 41.415 189.53C41.4085 189.514 41.4051 189.497 41.405 189.48C41.405 189.463 41.4083 189.446 41.4148 189.43C41.4213 189.415 41.4309 189.4 41.4429 189.388C41.455 189.376 41.4693 189.367 41.485 189.36C41.54 189.36 46.985 187.125 52.03 184.615C57.075 182.105 58.85 180.45 58.87 180.43C58.8951 180.406 58.9282 180.393 58.9625 180.393C58.9969 180.393 59.03 180.406 59.055 180.43C59.0789 180.456 59.0922 180.49 59.0922 180.525C59.0922 180.56 59.0789 180.594 59.055 180.62C58.98 180.685 57.2 182.325 52.15 184.845C47.1 187.365 41.65 189.575 41.59 189.6L41.535 189.615Z" fill="black"/>
<path d="M46.965 188.85C46.9444 188.85 46.9241 188.845 46.9058 188.835C46.8876 188.826 46.8719 188.812 46.86 188.795C46.8364 188.77 46.8233 188.737 46.8233 188.703C46.8233 188.668 46.8364 188.635 46.86 188.61C47.6023 188.075 48.182 187.344 48.535 186.5L43.1 186.64C43.0655 186.64 43.0324 186.626 43.008 186.602C42.9837 186.578 42.97 186.545 42.97 186.51C42.9699 186.475 42.9835 186.441 43.0077 186.416C43.032 186.391 43.065 186.376 43.1 186.375L48.895 186.225L48.85 186.395C48.5135 187.373 47.8787 188.221 47.035 188.82C47.015 188.837 46.9907 188.847 46.965 188.85Z" fill="black"/>
<path d="M53.3251 190.64C53.2917 190.64 53.2595 190.628 53.2351 190.605C53.1101 190.485 50.2901 187.72 50.4451 185.605C47.4666 184.989 44.5497 184.105 41.7301 182.965C41.6983 182.951 41.6733 182.925 41.6606 182.893C41.648 182.86 41.6487 182.824 41.6626 182.792C41.6765 182.761 41.7025 182.736 41.7349 182.723C41.7672 182.71 41.8033 182.711 41.8351 182.725C44.6753 183.872 47.6141 184.757 50.6151 185.37H50.7351V185.495C50.4701 187.495 53.4051 190.385 53.4351 190.415C53.4587 190.44 53.4718 190.473 53.4718 190.507C53.4718 190.542 53.4587 190.575 53.4351 190.6C53.4209 190.614 53.4037 190.626 53.3847 190.633C53.3656 190.639 53.3453 190.642 53.3251 190.64Z" fill="black"/>
<path d="M47.6953 184.895H43.7853C43.7508 184.895 43.7177 184.881 43.6934 184.857C43.669 184.833 43.6553 184.799 43.6553 184.765C43.6553 184.73 43.669 184.697 43.6934 184.673C43.7177 184.649 43.7508 184.635 43.7853 184.635H47.2853C46.8465 183.997 46.3157 183.428 45.7103 182.945C45.6867 182.92 45.6736 182.887 45.6736 182.852C45.6736 182.818 45.6867 182.785 45.7103 182.76C45.7224 182.748 45.7368 182.738 45.7526 182.731C45.7685 182.725 45.7856 182.721 45.8028 182.721C45.82 182.721 45.837 182.725 45.8529 182.731C45.8688 182.738 45.8832 182.748 45.8953 182.76C46.4753 183.26 47.4603 184.21 47.6303 184.76L47.6953 184.895Z" fill="black"/>
<path d="M50.1699 188.715H50.1149C50.0836 188.7 50.0594 188.673 50.0473 188.641C50.0352 188.608 50.0361 188.572 50.0499 188.54L50.8199 186.85H50.9149C52.0254 187.09 53.1055 187.454 54.1349 187.935C54.1662 187.95 54.1908 187.977 54.2038 188.009C54.2167 188.041 54.2171 188.077 54.2049 188.11C54.1897 188.141 54.163 188.165 54.1304 188.178C54.0978 188.19 54.0618 188.189 54.0299 188.175C53.0494 187.725 52.0259 187.374 50.9749 187.13L50.2899 188.63C50.2802 188.654 50.2638 188.675 50.2425 188.69C50.2212 188.705 50.196 188.714 50.1699 188.715Z" fill="black"/>
<path d="M54.5351 186.315L50.4751 185.595L50.0651 183.24C50.0607 183.206 50.0696 183.171 50.0901 183.143C50.1106 183.115 50.141 183.096 50.1751 183.09C50.1919 183.086 50.2092 183.086 50.2261 183.09C50.2429 183.093 50.2589 183.1 50.2729 183.11C50.287 183.12 50.2989 183.132 50.3079 183.147C50.3168 183.162 50.3227 183.178 50.3251 183.195L50.7051 185.37L54.5801 186.06C54.5971 186.062 54.6134 186.068 54.6281 186.077C54.6427 186.086 54.6554 186.098 54.6652 186.112C54.6751 186.126 54.6819 186.142 54.6853 186.159C54.6888 186.176 54.6887 186.193 54.6851 186.21C54.679 186.244 54.6598 186.274 54.6317 186.293C54.6036 186.313 54.5689 186.321 54.5351 186.315Z" fill="black"/>
</g>
<path d="M74.3453 184.735C74.3453 184.735 71.4853 185.545 70.6153 186.11C69.7453 186.675 71.2853 186.9 73.2603 186.61C72.2354 187.251 71.2684 187.981 70.3703 188.79C69.4603 189.73 71.9153 188.66 71.9153 188.66C71.9153 188.66 70.9153 191.335 72.1953 191.535C73.4753 191.735 75.7853 189.155 75.7853 189.155C75.7853 189.155 76.8703 190.5 77.1853 189.89C77.5003 189.28 77.2153 188.065 77.2153 188.065C78.1205 188.717 79.0656 189.311 80.0453 189.845C80.7303 190.115 80.5203 188.93 80.5203 188.93C80.5203 188.93 85.4303 190.265 85.9853 189.93C86.5403 189.595 84.3203 187.71 83.5353 187.105C83.5353 187.105 85.6953 186.9 85.2753 186.555C84.8553 186.21 82.9903 185.705 81.4903 185.465C81.4903 185.465 84.5903 185.09 84.8803 184.8C85.1703 184.51 83.7003 184.18 83.7003 184.18C83.7003 184.18 86.4553 182.995 86.0753 182.275C85.6953 181.555 81.5753 182.89 81.5753 182.89C81.5753 182.89 82.3503 182.045 81.5353 181.97C80.7203 181.895 77.5353 183.92 77.5353 183.92C77.5353 183.92 77.2703 182.155 76.4403 182.1C75.2353 182.025 74.3453 184.735 74.3453 184.735Z" fill="#73895D"/>
<path d="M84.9004 189.615C84.9297 189.613 84.9575 189.601 84.9794 189.581C85.0013 189.562 85.0163 189.535 85.0219 189.506C85.0276 189.478 85.0237 189.448 85.0108 189.421C84.9979 189.395 84.9767 189.373 84.9504 189.36C84.8954 189.36 79.4504 187.125 74.4054 184.615C69.3604 182.105 67.5854 180.45 67.5654 180.43C67.5404 180.406 67.5073 180.393 67.4729 180.393C67.4385 180.393 67.4055 180.406 67.3804 180.43C67.3565 180.456 67.3433 180.49 67.3433 180.525C67.3433 180.56 67.3565 180.594 67.3804 180.62C67.4554 180.685 69.2354 182.325 74.2854 184.845C79.3354 187.365 84.7854 189.575 84.8454 189.6L84.9004 189.615Z" fill="#73895D"/>
<path d="M79.4904 188.85C79.511 188.85 79.5313 188.845 79.5496 188.835C79.5678 188.826 79.5835 188.812 79.5954 188.795C79.6159 188.767 79.6247 188.732 79.6201 188.697C79.6154 188.663 79.5976 188.632 79.5704 188.61C78.8385 188.069 78.2694 187.338 77.9254 186.495L83.3604 186.635C83.3949 186.635 83.428 186.621 83.4524 186.597C83.4767 186.573 83.4904 186.539 83.4904 186.505C83.4905 186.47 83.4769 186.436 83.4527 186.411C83.4284 186.386 83.3954 186.371 83.3604 186.37L77.5654 186.22L77.6104 186.39C77.9406 187.367 78.5683 188.217 79.4054 188.82C79.4295 188.839 79.4595 188.85 79.4904 188.85Z" fill="#73895D"/>
<path d="M73.1302 190.64C73.1636 190.64 73.1958 190.628 73.2202 190.605C73.3452 190.485 76.1652 187.72 76.0102 185.605C78.9888 184.989 81.9056 184.105 84.7252 182.965C84.7562 182.951 84.7806 182.925 84.7936 182.894C84.8066 182.862 84.8072 182.827 84.7952 182.795C84.782 182.763 84.7566 182.738 84.7247 182.725C84.6928 182.712 84.657 182.712 84.6252 182.725C81.7829 183.871 78.8425 184.756 75.8402 185.37H75.7202V185.495C75.9852 187.495 73.0502 190.385 73.0252 190.415C73.013 190.427 73.0033 190.442 72.9966 190.457C72.99 190.473 72.9866 190.49 72.9866 190.508C72.9866 190.525 72.99 190.542 72.9966 190.558C73.0033 190.574 73.013 190.588 73.0252 190.6C73.0388 190.614 73.0552 190.625 73.0734 190.631C73.0915 190.638 73.1109 190.641 73.1302 190.64Z" fill="#73895D"/>
<path d="M78.76 184.895H82.67C82.7045 184.895 82.7376 184.881 82.7619 184.857C82.7863 184.833 82.8 184.8 82.8 184.765C82.8007 184.748 82.7978 184.731 82.7915 184.714C82.7853 184.698 82.7757 184.684 82.7635 184.672C82.7513 184.659 82.7367 184.65 82.7206 184.643C82.7045 184.637 82.6873 184.634 82.67 184.635H79.145C79.5855 183.998 80.116 183.429 80.72 182.945C80.7436 182.92 80.7567 182.887 80.7567 182.853C80.7567 182.818 80.7436 182.785 80.72 182.76C80.7079 182.748 80.6935 182.738 80.6776 182.731C80.6618 182.725 80.6447 182.721 80.6275 182.721C80.6103 182.721 80.5933 182.725 80.5774 182.731C80.5615 182.738 80.5471 182.748 80.535 182.76C79.955 183.26 78.97 184.21 78.8 184.76L78.76 184.895Z" fill="#73895D"/>
<path d="M76.2848 188.715H76.3398C76.3711 188.7 76.3954 188.673 76.4075 188.641C76.4196 188.608 76.4186 188.572 76.4048 188.54L75.6348 186.85H75.5398C74.4293 187.09 73.3492 187.454 72.3198 187.935C72.2885 187.95 72.2639 187.977 72.251 188.009C72.238 188.041 72.2376 188.077 72.2498 188.11C72.265 188.141 72.2917 188.165 72.3243 188.178C72.3569 188.19 72.3929 188.189 72.4248 188.175C73.4067 187.723 74.432 187.373 75.4848 187.13L76.1648 188.63C76.1745 188.654 76.191 188.675 76.2123 188.69C76.2336 188.705 76.2588 188.714 76.2848 188.715Z" fill="#73895D"/>
<path d="M71.9003 186.315L75.9603 185.595L76.3703 183.24C76.3747 183.206 76.3658 183.171 76.3453 183.143C76.3248 183.115 76.2944 183.096 76.2603 183.09C76.2265 183.084 76.1918 183.092 76.1637 183.112C76.1356 183.131 76.1164 183.161 76.1103 183.195L75.7353 185.37L71.8553 186.06C71.8383 186.062 71.822 186.068 71.8073 186.077C71.7927 186.086 71.78 186.098 71.7702 186.112C71.7603 186.126 71.7535 186.142 71.75 186.159C71.7466 186.176 71.7467 186.193 71.7503 186.21C71.7564 186.244 71.7756 186.274 71.8037 186.293C71.8318 186.313 71.8665 186.321 71.9003 186.315Z" fill="#73895D"/>
<g opacity="0.1">
<path d="M84.9004 189.615C84.9297 189.613 84.9575 189.601 84.9794 189.581C85.0013 189.562 85.0163 189.535 85.0219 189.506C85.0276 189.478 85.0237 189.448 85.0108 189.421C84.9979 189.395 84.9767 189.373 84.9504 189.36C84.8954 189.36 79.4504 187.125 74.4054 184.615C69.3604 182.105 67.5854 180.45 67.5654 180.43C67.5404 180.406 67.5073 180.393 67.4729 180.393C67.4385 180.393 67.4055 180.406 67.3804 180.43C67.3565 180.456 67.3433 180.49 67.3433 180.525C67.3433 180.56 67.3565 180.594 67.3804 180.62C67.4554 180.685 69.2354 182.325 74.2854 184.845C79.3354 187.365 84.7854 189.575 84.8454 189.6L84.9004 189.615Z" fill="black"/>
<path d="M79.4904 188.85C79.511 188.85 79.5313 188.845 79.5496 188.835C79.5678 188.826 79.5835 188.812 79.5954 188.795C79.6159 188.767 79.6247 188.732 79.6201 188.697C79.6154 188.663 79.5976 188.632 79.5704 188.61C78.8385 188.069 78.2694 187.338 77.9254 186.495L83.3604 186.635C83.3949 186.635 83.428 186.621 83.4524 186.597C83.4767 186.573 83.4904 186.539 83.4904 186.505C83.4905 186.47 83.4769 186.436 83.4527 186.411C83.4284 186.386 83.3954 186.371 83.3604 186.37L77.5654 186.22L77.6104 186.39C77.9406 187.367 78.5683 188.217 79.4054 188.82C79.4295 188.839 79.4595 188.85 79.4904 188.85Z" fill="black"/>
<path d="M73.1302 190.64C73.1636 190.64 73.1958 190.628 73.2202 190.605C73.3452 190.485 76.1652 187.72 76.0102 185.605C78.9888 184.989 81.9056 184.105 84.7252 182.965C84.7562 182.951 84.7806 182.925 84.7936 182.894C84.8066 182.862 84.8072 182.827 84.7952 182.795C84.782 182.763 84.7566 182.738 84.7247 182.725C84.6928 182.712 84.657 182.712 84.6252 182.725C81.7829 183.871 78.8425 184.756 75.8402 185.37H75.7202V185.495C75.9852 187.495 73.0502 190.385 73.0252 190.415C73.013 190.427 73.0033 190.442 72.9966 190.457C72.99 190.473 72.9866 190.49 72.9866 190.508C72.9866 190.525 72.99 190.542 72.9966 190.558C73.0033 190.574 73.013 190.588 73.0252 190.6C73.0388 190.614 73.0552 190.625 73.0734 190.631C73.0915 190.638 73.1109 190.641 73.1302 190.64Z" fill="black"/>
<path d="M78.7605 184.895H82.6705C82.705 184.895 82.738 184.881 82.7624 184.857C82.7868 184.833 82.8005 184.8 82.8005 184.765C82.8012 184.748 82.7983 184.731 82.792 184.714C82.7858 184.698 82.7762 184.684 82.764 184.672C82.7518 184.659 82.7372 184.65 82.7211 184.643C82.705 184.637 82.6878 184.634 82.6705 184.635H79.1455C79.586 183.998 80.1165 183.429 80.7205 182.945C80.7441 182.92 80.7572 182.887 80.7572 182.853C80.7572 182.818 80.7441 182.785 80.7205 182.76C80.7084 182.748 80.694 182.738 80.6781 182.731C80.6622 182.725 80.6452 182.721 80.628 182.721C80.6108 182.721 80.5938 182.725 80.5779 182.731C80.562 182.738 80.5476 182.748 80.5355 182.76C79.9555 183.26 78.9705 184.21 78.8005 184.76L78.7605 184.895Z" fill="black"/>
<path d="M76.2851 188.715H76.3401C76.3714 188.7 76.3956 188.673 76.4077 188.641C76.4198 188.608 76.4189 188.572 76.4051 188.54L75.6351 186.85H75.5401C74.4295 187.09 73.3495 187.454 72.3201 187.935C72.2887 187.95 72.2642 187.977 72.2512 188.009C72.2383 188.041 72.2379 188.077 72.2501 188.11C72.2653 188.141 72.2919 188.166 72.3245 188.178C72.3571 188.19 72.3932 188.189 72.4251 188.175C73.4069 187.724 74.4322 187.373 75.4851 187.13L76.1651 188.63C76.1747 188.654 76.1912 188.675 76.2125 188.69C76.2338 188.705 76.259 188.714 76.2851 188.715Z" fill="black"/>
<path d="M71.9003 186.315L75.9603 185.595L76.3703 183.24C76.3747 183.206 76.3658 183.171 76.3453 183.143C76.3248 183.115 76.2944 183.096 76.2603 183.09C76.2265 183.084 76.1918 183.092 76.1637 183.112C76.1356 183.131 76.1164 183.161 76.1103 183.195L75.7353 185.37L71.8553 186.06C71.8383 186.062 71.822 186.068 71.8073 186.077C71.7927 186.086 71.78 186.098 71.7702 186.112C71.7603 186.126 71.7535 186.142 71.75 186.159C71.7466 186.176 71.7467 186.193 71.7503 186.21C71.7564 186.244 71.7756 186.274 71.8037 186.293C71.8318 186.313 71.8665 186.321 71.9003 186.315Z" fill="black"/>
</g>
<path d="M49.5353 169.385C48.9548 169.539 48.3892 169.745 47.8453 170C47.4453 170.26 48.1503 170.365 49.0553 170.22C48.5862 170.513 48.1444 170.848 47.7353 171.22C47.3153 171.65 48.4403 171.16 48.4403 171.16C48.4403 171.16 47.9803 172.39 48.5703 172.48C49.1603 172.57 50.2153 171.385 50.2153 171.385C50.2153 171.385 50.7153 172.005 50.8553 171.725C50.9299 171.452 50.9299 171.163 50.8553 170.89C51.2714 171.188 51.7056 171.46 52.1553 171.705C52.4703 171.83 52.3703 171.285 52.3703 171.285C52.3703 171.285 54.6253 171.895 54.8703 171.75C55.1153 171.605 54.1053 170.75 53.7453 170.46C53.7453 170.46 54.7453 170.365 54.5403 170.205C53.9925 169.946 53.4067 169.778 52.8053 169.705C53.3326 169.657 53.8537 169.554 54.3603 169.4C54.4903 169.27 53.8203 169.115 53.8203 169.115C53.8203 169.115 55.0853 168.575 54.9103 168.245C54.7353 167.915 52.8553 168.525 52.8553 168.525C52.8553 168.525 53.2153 168.135 52.8553 168.1C52.4953 168.065 51.0353 169 51.0353 169C51.0353 169 50.9153 168.19 50.5353 168.165C49.9603 168.14 49.5353 169.385 49.5353 169.385Z" fill="#73895D"/>
<path d="M54.3952 171.62C54.4069 171.621 54.4185 171.618 54.4284 171.612C54.4383 171.605 54.4459 171.596 54.4502 171.585C54.4535 171.578 54.4554 171.57 54.4557 171.562C54.456 171.554 54.4547 171.546 54.4519 171.539C54.4491 171.531 54.4449 171.525 54.4394 171.519C54.434 171.513 54.4274 171.508 54.4202 171.505C54.4202 171.505 51.8852 170.505 49.5802 169.33C48.4589 168.824 47.4056 168.179 46.4452 167.41C46.4393 167.405 46.4324 167.401 46.4249 167.398C46.4174 167.396 46.4095 167.394 46.4016 167.395C46.3937 167.395 46.386 167.397 46.3789 167.401C46.3718 167.404 46.3654 167.409 46.3602 167.415C46.3549 167.421 46.3509 167.428 46.3483 167.435C46.3457 167.443 46.3446 167.451 46.3451 167.459C46.3455 167.466 46.3476 167.474 46.351 167.481C46.3545 167.488 46.3593 167.495 46.3652 167.5C47.3343 168.28 48.3997 168.932 49.5352 169.44C51.8402 170.59 54.3502 171.61 54.3802 171.62H54.3952Z" fill="#73895D"/>
<path d="M51.9151 171.27C51.9241 171.27 51.9331 171.268 51.941 171.264C51.9489 171.259 51.9555 171.253 51.96 171.245C51.9655 171.24 51.9698 171.234 51.9728 171.227C51.9758 171.22 51.9773 171.212 51.9773 171.205C51.9773 171.198 51.9758 171.19 51.9728 171.183C51.9698 171.176 51.9655 171.17 51.96 171.165C51.6252 170.914 51.3644 170.577 51.205 170.19L53.705 170.255C53.7127 170.256 53.7204 170.255 53.7276 170.252C53.7349 170.25 53.7416 170.246 53.7472 170.241C53.7529 170.236 53.7574 170.229 53.7604 170.222C53.7635 170.215 53.7651 170.208 53.765 170.2C53.7657 170.192 53.7647 170.183 53.762 170.176C53.7593 170.168 53.755 170.16 53.7493 170.154C53.7437 170.148 53.7369 170.143 53.7292 170.14C53.7216 170.137 53.7134 170.135 53.705 170.135L51.05 170.065V170.145C51.2008 170.594 51.4895 170.984 51.875 171.26L51.9151 171.27Z" fill="#73895D"/>
<path d="M48.9953 172.095C49.0097 172.101 49.0258 172.101 49.0403 172.095C49.0953 172.04 50.3903 170.775 50.3203 169.795C51.6875 169.514 53.0263 169.109 54.3203 168.585C54.3275 168.582 54.3341 168.577 54.3395 168.571C54.345 168.566 54.3492 168.559 54.352 168.551C54.3548 168.544 54.3561 168.536 54.3558 168.528C54.3555 168.52 54.3536 168.512 54.3503 168.505C54.3475 168.498 54.3434 168.491 54.3381 168.486C54.3328 168.481 54.3264 168.476 54.3193 168.474C54.3123 168.471 54.3047 168.469 54.2971 168.47C54.2896 168.47 54.2821 168.472 54.2753 168.475C52.9714 169 51.6225 169.405 50.2453 169.685H50.1903V169.745C50.3103 170.67 48.9653 171.985 48.9503 172C48.9447 172.006 48.9402 172.012 48.9372 172.019C48.9342 172.027 48.9326 172.035 48.9326 172.042C48.9326 172.05 48.9342 172.058 48.9372 172.066C48.9402 172.073 48.9447 172.079 48.9503 172.085C48.9567 172.09 48.964 172.093 48.9718 172.094C48.9795 172.096 48.9875 172.096 48.9953 172.095Z" fill="#73895D"/>
<path d="M51.5803 169.46H53.3753C53.3889 169.456 53.4009 169.448 53.4094 169.437C53.4179 169.425 53.4225 169.412 53.4225 169.397C53.4225 169.383 53.4179 169.37 53.4094 169.358C53.4009 169.347 53.3889 169.339 53.3753 169.335H51.7603C51.9618 169.042 52.2043 168.779 52.4803 168.555C52.4859 168.549 52.4904 168.543 52.4934 168.535C52.4964 168.528 52.498 168.52 52.498 168.512C52.498 168.505 52.4964 168.497 52.4934 168.489C52.4904 168.482 52.4859 168.476 52.4803 168.47C52.4747 168.464 52.4681 168.46 52.4608 168.457C52.4535 168.454 52.4457 168.452 52.4378 168.452C52.4299 168.452 52.4221 168.454 52.4148 168.457C52.4075 168.46 52.4009 168.464 52.3953 168.47C52.0727 168.718 51.8024 169.027 51.6003 169.38L51.5803 169.46Z" fill="#73895D"/>
<path d="M50.4453 171.21H50.4703C50.4775 171.207 50.4841 171.202 50.4895 171.196C50.495 171.191 50.4992 171.184 50.502 171.176C50.5048 171.169 50.5061 171.161 50.5058 171.153C50.5055 171.145 50.5036 171.137 50.5003 171.13L50.1453 170.355H50.1003C49.5908 170.464 49.0957 170.631 48.6253 170.855C48.6107 170.862 48.5993 170.874 48.5937 170.889C48.5881 170.904 48.5886 170.92 48.5953 170.935C48.6019 170.95 48.614 170.961 48.629 170.967C48.6441 170.972 48.6607 170.972 48.6753 170.965C49.124 170.752 49.593 170.584 50.0753 170.465L50.3903 171.155C50.3914 171.169 50.3976 171.183 50.4076 171.193C50.4177 171.203 50.4311 171.209 50.4453 171.21Z" fill="#73895D"/>
<path d="M48.4353 170.11L50.2953 169.78L50.4803 168.7C50.4767 168.688 50.4691 168.677 50.4587 168.669C50.4483 168.661 50.4358 168.657 50.4228 168.657C50.4099 168.657 50.3973 168.661 50.387 168.669C50.3766 168.677 50.369 168.688 50.3653 168.7L50.1903 169.7L48.4103 170.015C48.3944 170.015 48.3792 170.021 48.3679 170.033C48.3567 170.044 48.3503 170.059 48.3503 170.075C48.3503 170.091 48.3567 170.106 48.3679 170.117C48.3792 170.129 48.3944 170.135 48.4103 170.135L48.4353 170.11Z" fill="#73895D"/>
<g opacity="0.1">
<path d="M54.3952 171.62C54.4069 171.621 54.4185 171.618 54.4284 171.612C54.4383 171.605 54.4459 171.596 54.4502 171.585C54.4535 171.578 54.4554 171.57 54.4557 171.562C54.456 171.554 54.4547 171.546 54.4519 171.539C54.4491 171.531 54.4449 171.525 54.4394 171.519C54.434 171.513 54.4274 171.508 54.4202 171.505C54.4202 171.505 51.8852 170.505 49.5802 169.33C48.4589 168.824 47.4056 168.179 46.4452 167.41C46.4393 167.405 46.4324 167.401 46.4249 167.398C46.4174 167.396 46.4095 167.394 46.4016 167.395C46.3937 167.395 46.386 167.397 46.3789 167.401C46.3718 167.404 46.3654 167.409 46.3602 167.415C46.3549 167.421 46.3509 167.428 46.3483 167.435C46.3457 167.443 46.3446 167.451 46.3451 167.459C46.3455 167.466 46.3476 167.474 46.351 167.481C46.3545 167.488 46.3593 167.495 46.3652 167.5C47.3343 168.28 48.3997 168.932 49.5352 169.44C51.8402 170.59 54.3502 171.61 54.3802 171.62H54.3952Z" fill="black"/>
<path d="M51.9151 171.27C51.9241 171.27 51.9331 171.268 51.941 171.264C51.9489 171.259 51.9555 171.253 51.96 171.245C51.9655 171.24 51.9698 171.234 51.9728 171.227C51.9758 171.22 51.9773 171.212 51.9773 171.205C51.9773 171.198 51.9758 171.19 51.9728 171.183C51.9698 171.176 51.9655 171.17 51.96 171.165C51.6252 170.914 51.3644 170.577 51.205 170.19L53.705 170.255C53.7127 170.256 53.7204 170.255 53.7276 170.252C53.7349 170.25 53.7416 170.246 53.7472 170.241C53.7529 170.236 53.7574 170.229 53.7604 170.222C53.7635 170.215 53.7651 170.208 53.765 170.2C53.7657 170.192 53.7647 170.183 53.762 170.176C53.7593 170.168 53.755 170.16 53.7493 170.154C53.7437 170.148 53.7369 170.143 53.7292 170.14C53.7216 170.137 53.7134 170.135 53.705 170.135L51.05 170.065V170.145C51.2008 170.594 51.4895 170.984 51.875 171.26L51.9151 171.27Z" fill="black"/>
<path d="M48.9953 172.095C49.0097 172.101 49.0258 172.101 49.0403 172.095C49.0953 172.04 50.3903 170.775 50.3203 169.795C51.6875 169.514 53.0263 169.109 54.3203 168.585C54.3275 168.582 54.3341 168.577 54.3395 168.571C54.345 168.566 54.3492 168.559 54.352 168.551C54.3548 168.544 54.3561 168.536 54.3558 168.528C54.3555 168.52 54.3536 168.512 54.3503 168.505C54.3475 168.498 54.3434 168.492 54.3381 168.486C54.3328 168.481 54.3264 168.476 54.3193 168.474C54.3123 168.471 54.3047 168.47 54.2971 168.47C54.2896 168.47 54.2821 168.472 54.2753 168.475C52.9714 169 51.6225 169.405 50.2453 169.685H50.1903V169.745C50.3103 170.67 48.9653 171.985 48.9503 172C48.9447 172.006 48.9402 172.012 48.9372 172.02C48.9342 172.027 48.9326 172.035 48.9326 172.043C48.9326 172.05 48.9342 172.058 48.9372 172.066C48.9402 172.073 48.9447 172.079 48.9503 172.085C48.9567 172.09 48.964 172.093 48.9718 172.095C48.9795 172.096 48.9875 172.096 48.9953 172.095Z" fill="black"/>
<path d="M51.5803 169.46H53.3753C53.3889 169.456 53.4009 169.448 53.4094 169.437C53.4179 169.425 53.4225 169.412 53.4225 169.397C53.4225 169.383 53.4179 169.37 53.4094 169.358C53.4009 169.347 53.3889 169.339 53.3753 169.335H51.7603C51.9618 169.042 52.2043 168.779 52.4803 168.555C52.4859 168.549 52.4904 168.543 52.4934 168.535C52.4964 168.528 52.498 168.52 52.498 168.512C52.498 168.505 52.4964 168.497 52.4934 168.489C52.4904 168.482 52.4859 168.476 52.4803 168.47C52.4747 168.464 52.4681 168.46 52.4608 168.457C52.4535 168.454 52.4457 168.452 52.4378 168.452C52.4299 168.452 52.4221 168.454 52.4148 168.457C52.4075 168.46 52.4009 168.464 52.3953 168.47C52.0727 168.718 51.8024 169.027 51.6003 169.38L51.5803 169.46Z" fill="black"/>
<path d="M50.4453 171.21H50.4703C50.4775 171.207 50.4841 171.202 50.4895 171.196C50.495 171.191 50.4992 171.184 50.502 171.176C50.5048 171.169 50.5061 171.161 50.5058 171.153C50.5055 171.145 50.5036 171.137 50.5003 171.13L50.1453 170.355H50.1003C49.5908 170.464 49.0957 170.631 48.6253 170.855C48.6107 170.862 48.5993 170.874 48.5937 170.889C48.5881 170.904 48.5886 170.92 48.5953 170.935C48.6019 170.95 48.614 170.961 48.629 170.967C48.6441 170.972 48.6607 170.972 48.6753 170.965C49.124 170.752 49.593 170.584 50.0753 170.465L50.3903 171.155C50.3914 171.169 50.3976 171.183 50.4076 171.193C50.4177 171.203 50.4311 171.209 50.4453 171.21Z" fill="black"/>
<path d="M48.4353 170.11L50.2953 169.78L50.4803 168.7C50.4767 168.688 50.4691 168.677 50.4587 168.669C50.4483 168.661 50.4358 168.657 50.4228 168.657C50.4099 168.657 50.3973 168.661 50.387 168.669C50.3766 168.677 50.369 168.688 50.3653 168.7L50.1903 169.7L48.4103 170.015C48.3944 170.015 48.3792 170.021 48.3679 170.033C48.3567 170.044 48.3503 170.059 48.3503 170.075C48.3503 170.091 48.3567 170.106 48.3679 170.117C48.3792 170.129 48.3944 170.135 48.4103 170.135L48.4353 170.11Z" fill="black"/>
</g>
<path d="M58.9972 97.9374C59.8267 86.2224 51.0022 76.0531 39.2872 75.2236C27.5722 74.3941 17.4029 83.2186 16.5734 94.9336C15.7439 106.649 24.5684 116.818 36.2834 117.647C47.9984 118.477 58.1677 109.652 58.9972 97.9374Z" fill="#73895D"/>
<path d="M115.422 92.0246C117.71 75.4726 106.147 60.1998 89.595 57.9119C73.043 55.6239 57.7702 67.1872 55.4823 83.7392C53.1943 100.291 64.7576 115.564 81.3096 117.852C97.8616 120.14 113.134 108.577 115.422 92.0246Z" fill="#73895D"/>
<path d="M76.996 112.9L63.271 139.93L65.4823 141.052L79.2073 114.022L76.996 112.9Z" fill="#455A64"/>
<path d="M51.9137 110.473L49.8057 111.788L63.2809 133.399L65.3889 132.085L51.9137 110.473Z" fill="#455A64"/>
<path d="M66.4451 108.15V173.3C66.429 173.483 66.3645 173.658 66.2581 173.807C66.1518 173.957 66.0074 174.075 65.84 174.15C65.3849 174.379 64.8823 174.499 64.3726 174.499C63.8628 174.499 63.3602 174.379 62.905 174.15C62.7377 174.075 62.5933 173.957 62.487 173.807C62.3806 173.658 62.3161 173.483 62.3 173.3V108.15H66.4451Z" fill="#455A64"/>
<path d="M94.9298 80.135C98.8298 67.85 102.99 63.045 100.35 61.545C95.338 58.7085 89.6208 57.3612 83.8698 57.6615C78.1188 57.9619 72.573 59.8973 67.8839 63.2404C63.1948 66.5836 59.5572 71.1956 57.3986 76.5345C55.2399 81.8734 54.6498 87.7176 55.6977 93.3803C56.7455 99.043 59.3877 104.289 63.3138 108.502C67.24 112.715 72.287 115.72 77.8618 117.164C83.4367 118.608 89.3079 118.431 94.7856 116.653C100.263 114.876 105.12 111.572 108.785 107.13C99.8198 109.745 89.8698 96.075 94.9298 80.135Z" fill="#73895D"/>
<path opacity="0.1" d="M94.9298 80.135C98.8298 67.85 102.99 63.045 100.35 61.545C95.338 58.7085 89.6208 57.3612 83.8698 57.6615C78.1188 57.9619 72.573 59.8973 67.8839 63.2404C63.1948 66.5836 59.5572 71.1956 57.3986 76.5345C55.2399 81.8734 54.6498 87.7176 55.6977 93.3803C56.7455 99.043 59.3877 104.289 63.3138 108.502C67.24 112.715 72.287 115.72 77.8618 117.164C83.4367 118.608 89.3079 118.431 94.7856 116.653C100.263 114.876 105.12 111.572 108.785 107.13C99.8198 109.745 89.8698 96.075 94.9298 80.135Z" fill="black"/>
<path d="M37.7801 75.175C33.3205 75.1664 28.9721 76.5663 25.3551 79.175C24.7801 92.175 35.8051 104.835 32.7251 109.09C29.6451 113.345 22.0351 110.74 19.4001 107.13C21.2753 110.355 23.9656 113.029 27.2011 114.885C30.4365 116.741 34.1033 117.714 37.8334 117.705C41.5635 117.696 45.2256 116.706 48.4522 114.835C51.6788 112.963 54.3564 110.276 56.2162 107.043C58.0759 103.809 59.0525 100.143 59.0478 96.4134C59.0432 92.6833 58.0574 89.0201 56.1896 85.7914C54.3217 82.5627 51.6374 79.8821 48.4061 78.0187C45.1748 76.1552 41.5102 75.1746 37.7801 75.175Z" fill="#73895D"/>
<path opacity="0.1" d="M37.7801 75.175C33.3205 75.1664 28.9721 76.5663 25.3551 79.175C24.7801 92.175 35.8051 104.835 32.7251 109.09C29.6451 113.345 22.0351 110.74 19.4001 107.13C21.2753 110.355 23.9656 113.029 27.2011 114.885C30.4365 116.741 34.1033 117.714 37.8334 117.705C41.5635 117.696 45.2256 116.706 48.4522 114.835C51.6788 112.963 54.3564 110.276 56.2162 107.043C58.0759 103.809 59.0525 100.143 59.0478 96.4134C59.0432 92.6833 58.0574 89.0201 56.1896 85.7914C54.3217 82.5627 51.6374 79.8821 48.4061 78.0187C45.1748 76.1552 41.5102 75.1746 37.7801 75.175Z" fill="black"/>
<path d="M91.959 101.093C107.193 85.859 107.193 61.1593 91.959 45.9249C76.7247 30.6906 52.0249 30.6906 36.7905 45.9249C21.5562 61.1593 21.5562 85.859 36.7905 101.093C52.0249 116.328 76.7246 116.328 91.959 101.093Z" fill="#73895D"/>
<path d="M102.345 82.4251C100.862 88.7319 97.8306 94.5699 93.5253 99.4116C89.22 104.253 83.7763 107.946 77.686 110.156C71.5957 112.367 65.0507 113.025 58.6422 112.071C52.2338 111.118 46.1638 108.583 40.9807 104.696C35.7975 100.808 31.6646 95.6907 28.9551 89.8054C26.2457 83.9202 25.0451 77.4526 25.4619 70.9871C25.8787 64.5215 27.8997 58.2617 31.3424 52.773C34.785 47.2844 39.5408 42.7399 45.1802 39.55C41.7926 41.4664 38.7103 43.878 36.0352 46.7051C34.0738 55.0523 34.918 63.8134 38.4372 71.6326C41.9564 79.4517 47.9545 85.8932 55.5032 89.9602C63.052 94.0272 71.7307 95.493 80.1965 94.1309C88.6622 92.7688 96.4431 88.6546 102.335 82.4251H102.345Z" fill="#73895D"/>
<path opacity="0.1" d="M102.345 82.4251C100.862 88.7319 97.8306 94.5699 93.5253 99.4116C89.22 104.253 83.7763 107.946 77.686 110.156C71.5957 112.367 65.0507 113.025 58.6422 112.071C52.2338 111.118 46.1638 108.583 40.9807 104.696C35.7975 100.808 31.6646 95.6907 28.9551 89.8054C26.2457 83.9202 25.0451 77.4526 25.4619 70.9871C25.8787 64.5215 27.8997 58.2617 31.3424 52.773C34.785 47.2844 39.5408 42.7399 45.1802 39.55C41.7926 41.4664 38.7103 43.878 36.0352 46.7051C34.0738 55.0523 34.918 63.8134 38.4372 71.6326C41.9564 79.4517 47.9545 85.8932 55.5032 89.9602C63.052 94.0272 71.7307 95.493 80.1965 94.1309C88.6622 92.7688 96.4431 88.6546 102.335 82.4251H102.345Z" fill="black"/>
<path d="M154.673 70.9543C155.817 63.9587 151.074 57.36 144.078 56.2157C137.083 55.0714 130.484 59.8148 129.34 66.8104C128.195 73.806 132.939 80.4047 139.934 81.549C146.93 82.6933 153.529 77.9499 154.673 70.9543Z" fill="#73895D"/>
<path d="M188.9 65.9658C190.143 55.958 183.038 46.8374 173.03 45.5944C163.022 44.3514 153.902 51.4567 152.659 61.4645C151.416 71.4723 158.521 80.5929 168.529 81.8359C178.537 83.0789 187.657 75.9736 188.9 65.9658Z" fill="#73895D"/>
<path d="M165.685 78.819L157.4 95.136L158.733 95.8128L167.018 79.4958L165.685 78.819Z" fill="#455A64"/>
<path d="M150.305 77.4967L149.034 78.2836L157.111 91.3308L158.382 90.5439L150.305 77.4967Z" fill="#455A64"/>
<path d="M159.315 75.955V115.275C159.301 115.383 159.26 115.486 159.195 115.573C159.131 115.661 159.044 115.73 158.945 115.775C158.67 115.913 158.367 115.985 158.06 115.985C157.753 115.985 157.45 115.913 157.175 115.775C157.076 115.73 156.991 115.661 156.927 115.573C156.863 115.485 156.823 115.383 156.81 115.275V75.955H159.315Z" fill="#455A64"/>
<path d="M176.505 59.045C178.86 51.63 181.37 48.73 179.775 47.825C176.75 46.1112 173.299 45.2966 169.827 45.4767C166.356 45.6568 163.007 46.8243 160.176 48.8419C157.345 50.8594 155.149 53.6433 153.845 56.8662C152.542 60.0891 152.186 63.6171 152.818 67.0355C153.451 70.4539 155.047 73.6206 157.417 76.1635C159.788 78.7064 162.835 80.5197 166.201 81.3903C169.566 82.2609 173.111 82.1526 176.417 81.0782C179.723 80.0038 182.654 78.0078 184.865 75.325C179.455 76.915 173.45 68.665 176.505 59.045Z" fill="#73895D"/>
<path opacity="0.1" d="M176.505 59.045C178.86 51.63 181.37 48.73 179.775 47.825C176.75 46.1112 173.299 45.2966 169.827 45.4767C166.356 45.6568 163.007 46.8243 160.176 48.8419C157.345 50.8594 155.149 53.6433 153.845 56.8662C152.542 60.0891 152.186 63.6171 152.818 67.0355C153.451 70.4539 155.047 73.6206 157.417 76.1635C159.788 78.7064 162.835 80.5197 166.201 81.3903C169.566 82.2609 173.111 82.1526 176.417 81.0782C179.723 80.0038 182.654 78.0078 184.865 75.325C179.455 76.915 173.45 68.665 176.505 59.045Z" fill="black"/>
<path d="M142.035 56.05C139.343 56.0471 136.718 56.894 134.535 58.47C134.19 66.31 140.845 73.97 138.985 76.525C137.125 79.08 132.54 77.525 130.945 75.335C132.077 77.2817 133.7 78.8965 135.653 80.0172C137.606 81.138 139.82 81.7252 142.072 81.72C144.323 81.7147 146.534 81.1172 148.482 79.9874C150.429 78.8576 152.046 77.2353 153.168 75.2834C154.291 73.3314 154.88 71.1185 154.877 68.8668C154.873 66.6151 154.278 64.4038 153.15 62.4551C152.022 60.5063 150.401 58.8886 148.45 57.7643C146.499 56.6401 144.287 56.0488 142.035 56.05Z" fill="#73895D"/>
<path opacity="0.1" d="M142.035 56.05C139.343 56.0471 136.718 56.894 134.535 58.47C134.19 66.31 140.845 73.97 138.985 76.525C137.125 79.08 132.54 77.525 130.945 75.335C132.077 77.2817 133.7 78.8965 135.653 80.0172C137.606 81.138 139.82 81.7252 142.072 81.72C144.323 81.7147 146.534 81.1172 148.482 79.9874C150.429 78.8576 152.046 77.2353 153.168 75.2834C154.291 73.3314 154.88 71.1185 154.877 68.8668C154.873 66.6151 154.278 64.4038 153.15 62.4551C152.022 60.5063 150.401 58.8886 148.45 57.7643C146.499 56.6401 144.287 56.0488 142.035 56.05Z" fill="black"/>
<path d="M158.06 78.59C171.064 78.59 181.605 68.0485 181.605 55.045C181.605 42.0415 171.064 31.5 158.06 31.5C145.057 31.5 134.515 42.0415 134.515 55.045C134.515 68.0485 145.057 78.59 158.06 78.59Z" fill="#73895D"/>
<path d="M180.98 60.425C180.086 64.2343 178.257 67.7608 175.658 70.6858C173.06 73.6107 169.773 75.8419 166.095 77.1776C162.417 78.5133 158.465 78.9114 154.595 78.3359C150.724 77.7605 147.059 76.2296 143.929 73.8817C140.799 71.5338 138.303 68.4428 136.668 64.8883C135.032 61.3337 134.309 57.4276 134.562 53.5231C134.815 49.6186 136.037 45.8387 138.118 42.5252C140.199 39.2117 143.073 36.469 146.48 34.545C144.444 35.7089 142.591 37.1662 140.98 38.87C140.171 42.3253 140.153 45.9188 140.928 49.382C141.703 52.8451 143.25 56.0884 145.455 58.8694C147.659 61.6504 150.464 63.8972 153.659 65.4419C156.854 66.9867 160.356 67.7894 163.905 67.79C167.102 67.7886 170.266 67.1347 173.202 65.8683C176.138 64.6019 178.785 62.7497 180.98 60.425Z" fill="#73895D"/>
<path opacity="0.1" d="M180.98 60.425C180.086 64.2343 178.257 67.7608 175.658 70.6858C173.06 73.6107 169.773 75.8419 166.095 77.1776C162.417 78.5133 158.465 78.9114 154.595 78.3359C150.724 77.7605 147.059 76.2296 143.929 73.8817C140.799 71.5338 138.303 68.4428 136.668 64.8883C135.032 61.3337 134.309 57.4276 134.562 53.5231C134.815 49.6186 136.037 45.8387 138.118 42.5252C140.199 39.2117 143.073 36.469 146.48 34.545C144.444 35.7089 142.591 37.1662 140.98 38.87C140.171 42.3253 140.153 45.9188 140.928 49.382C141.703 52.8451 143.25 56.0884 145.455 58.8694C147.659 61.6504 150.464 63.8972 153.659 65.4419C156.854 66.9867 160.356 67.7894 163.905 67.79C167.102 67.7886 170.266 67.1347 173.202 65.8683C176.138 64.6019 178.785 62.7497 180.98 60.425Z" fill="black"/>
<path d="M136.155 105.535C135.993 105.64 135.858 105.783 135.761 105.95C135.665 106.118 135.609 106.307 135.6 106.5C135.6 106.855 135.845 107 136.155 106.82C136.318 106.715 136.454 106.573 136.551 106.405C136.649 106.237 136.705 106.049 136.715 105.855C136.715 105.5 136.465 105.355 136.155 105.535Z" fill="#73895D"/>
<path d="M130.09 153.39C129.827 153.389 129.568 153.318 129.34 153.185L113.18 143.855C112.31 143.351 111.587 142.627 111.084 141.756C110.581 140.884 110.316 139.896 110.315 138.89V120.225C110.315 119.827 110.473 119.446 110.755 119.164C111.036 118.883 111.418 118.725 111.815 118.725C112.213 118.725 112.595 118.883 112.876 119.164C113.157 119.446 113.315 119.827 113.315 120.225V138.89C113.315 139.369 113.441 139.84 113.681 140.255C113.921 140.671 114.265 141.015 114.68 141.255L130.84 150.59C131.127 150.755 131.351 151.01 131.478 151.315C131.604 151.62 131.627 151.959 131.541 152.278C131.456 152.597 131.267 152.879 131.005 153.081C130.742 153.282 130.421 153.39 130.09 153.39Z" fill="#37474F"/>
<path d="M105.68 167.42C105.416 167.421 105.157 167.35 104.93 167.215L88.7649 157.885C87.8951 157.38 87.1729 156.656 86.6702 155.785C86.1676 154.913 85.902 153.926 85.8999 152.92V134.255C85.8999 133.857 86.0579 133.476 86.3392 133.194C86.6205 132.913 87.0021 132.755 87.3999 132.755C87.7977 132.755 88.1793 132.913 88.4606 133.194C88.7419 133.476 88.8999 133.857 88.8999 134.255V152.92C88.9008 153.399 89.0273 153.87 89.2668 154.285C89.5063 154.7 89.8505 155.045 90.2649 155.285L106.43 164.62C106.716 164.785 106.94 165.04 107.067 165.345C107.194 165.65 107.216 165.989 107.13 166.308C107.045 166.627 106.856 166.909 106.594 167.111C106.332 167.312 106.01 167.42 105.68 167.42Z" fill="#37474F"/>
<path d="M154.43 139.32C154.168 139.32 153.911 139.249 153.685 139.115L137.535 129.785C136.665 129.282 135.942 128.559 135.439 127.688C134.936 126.818 134.671 125.83 134.67 124.825V106.16C134.67 105.762 134.828 105.381 135.11 105.099C135.391 104.818 135.772 104.66 136.17 104.66C136.568 104.66 136.95 104.818 137.231 105.099C137.512 105.381 137.67 105.762 137.67 106.16V124.825C137.671 125.303 137.798 125.773 138.038 126.187C138.277 126.601 138.621 126.945 139.035 127.185L155.185 136.5C155.472 136.665 155.696 136.92 155.823 137.226C155.949 137.532 155.971 137.871 155.885 138.191C155.799 138.51 155.61 138.792 155.346 138.993C155.083 139.194 154.761 139.302 154.43 139.3V139.32Z" fill="#37474F"/>
<path d="M108.475 165.56V182.83C108.462 182.981 108.408 183.125 108.32 183.248C108.233 183.371 108.113 183.468 107.975 183.53C107.602 183.717 107.19 183.815 106.773 183.815C106.355 183.815 105.943 183.717 105.57 183.53C105.432 183.468 105.313 183.371 105.225 183.248C105.137 183.125 105.084 182.981 105.07 182.83V165.56H108.475Z" fill="#455A64"/>
<path d="M94.2203 157.435V174.71C94.2074 174.86 94.1542 175.004 94.0662 175.126C93.9781 175.249 93.8586 175.345 93.7203 175.405C93.347 175.595 92.9341 175.694 92.5153 175.694C92.0965 175.694 91.6837 175.595 91.3103 175.405C91.1726 175.344 91.0537 175.248 90.9658 175.126C90.8779 175.003 90.8242 174.86 90.8103 174.71V157.435H94.2203Z" fill="#455A64"/>
<path d="M157.175 137.44V154.715C157.161 154.865 157.107 155.008 157.019 155.13C156.931 155.252 156.813 155.349 156.675 155.41C156.302 155.6 155.889 155.699 155.47 155.699C155.052 155.699 154.639 155.6 154.265 155.41C154.127 155.35 154.008 155.253 153.92 155.131C153.832 155.009 153.779 154.865 153.765 154.715V137.44H157.175Z" fill="#455A64"/>
<path d="M142.915 129.32V146.595C142.901 146.745 142.847 146.888 142.759 147.01C142.671 147.132 142.552 147.229 142.415 147.29C142.043 147.48 141.63 147.579 141.213 147.579C140.795 147.579 140.382 147.48 140.01 147.29C139.873 147.229 139.754 147.132 139.666 147.01C139.578 146.888 139.524 146.745 139.51 146.595V129.32H142.915Z" fill="#455A64"/>
<path d="M82.56 138.5L82.26 138.33C82.0084 138.165 81.7991 137.944 81.6488 137.683C81.4986 137.423 81.4116 137.13 81.395 136.83V134.14C81.4105 133.839 81.4969 133.547 81.6472 133.286C81.7976 133.025 82.0076 132.804 82.26 132.64L137.395 100.805C137.664 100.67 137.961 100.599 138.263 100.599C138.564 100.599 138.861 100.67 139.13 100.805L139.43 100.98C139.682 101.145 139.891 101.366 140.042 101.627C140.192 101.887 140.279 102.18 140.295 102.48V105.17C140.278 105.47 140.19 105.762 140.04 106.022C139.89 106.283 139.681 106.505 139.43 106.67L84.29 138.5C84.0219 138.636 83.7256 138.707 83.425 138.707C83.1245 138.707 82.8282 138.636 82.56 138.5Z" fill="#37474F"/>
<path d="M85.455 135.5L81.65 133.3C81.4915 133.558 81.4036 133.853 81.395 134.155V136.845C81.4116 137.145 81.4986 137.437 81.6488 137.698C81.7991 137.959 82.0084 138.18 82.26 138.345L82.56 138.515C82.8282 138.651 83.1245 138.721 83.425 138.721C83.7256 138.721 84.0219 138.651 84.29 138.515L85.455 137.845V135.5Z" fill="#263238"/>
<path d="M82.56 146.715L82.26 146.545C82.0079 146.381 81.7981 146.159 81.6478 145.899C81.4975 145.638 81.4109 145.346 81.395 145.045V142.355C81.4105 142.054 81.4969 141.762 81.6472 141.501C81.7976 141.24 82.0076 141.019 82.26 140.855L137.395 109C137.664 108.865 137.961 108.794 138.263 108.794C138.564 108.794 138.861 108.865 139.13 109L139.43 109.175C139.682 109.34 139.891 109.561 140.042 109.822C140.192 110.082 140.279 110.375 140.295 110.675V113.365C140.278 113.665 140.191 113.957 140.041 114.218C139.89 114.478 139.681 114.7 139.43 114.865L84.29 146.715C84.0226 146.853 83.726 146.925 83.425 146.925C83.124 146.925 82.8274 146.853 82.56 146.715Z" fill="#37474F"/>
<path d="M85.455 143.7L81.65 141.5C81.4922 141.758 81.4043 142.053 81.395 142.355V145.045C81.4109 145.346 81.4975 145.638 81.6478 145.899C81.7981 146.159 82.0079 146.381 82.26 146.545L82.56 146.715C82.8274 146.853 83.124 146.925 83.425 146.925C83.726 146.925 84.0226 146.853 84.29 146.715L85.455 146.045V143.7Z" fill="#263238"/>
<path d="M82.56 154.945L82.26 154.77C82.0076 154.606 81.7976 154.385 81.6472 154.124C81.4969 153.863 81.4105 153.571 81.395 153.27V150.58C81.4109 150.28 81.4975 149.987 81.6478 149.726C81.7981 149.466 82.0079 149.244 82.26 149.08L137.395 117.245C137.664 117.11 137.961 117.039 138.263 117.039C138.564 117.039 138.861 117.11 139.13 117.245L139.43 117.42C139.682 117.585 139.891 117.806 140.042 118.067C140.192 118.327 140.279 118.62 140.295 118.92V121.61C140.278 121.91 140.191 122.202 140.041 122.463C139.89 122.723 139.681 122.945 139.43 123.11L84.29 154.945C84.0219 155.081 83.7256 155.152 83.425 155.152C83.1245 155.152 82.8282 155.081 82.56 154.945Z" fill="#37474F"/>
<path d="M85.455 151.925L81.65 149.725C81.4928 149.983 81.4049 150.278 81.395 150.58V153.27C81.4105 153.571 81.4969 153.863 81.6472 154.124C81.7976 154.385 82.0076 154.606 82.26 154.77L82.56 154.945C82.8282 155.081 83.1245 155.152 83.425 155.152C83.7256 155.152 84.0219 155.081 84.29 154.945L85.455 154.27V151.925Z" fill="#263238"/>
<path d="M85.4551 159.925V160.27C85.4719 160.571 85.5594 160.864 85.7106 161.124C85.8617 161.385 86.0723 161.606 86.3251 161.77L88.6551 163.115C88.9232 163.251 89.2195 163.322 89.5201 163.322C89.8206 163.322 90.1169 163.251 90.3851 163.115L145.535 131.28C145.788 131.116 145.997 130.895 146.148 130.634C146.298 130.373 146.385 130.081 146.4 129.78V129.435C146.384 129.135 146.298 128.842 146.147 128.581C145.997 128.321 145.787 128.099 145.535 127.935L143.205 126.59C142.937 126.454 142.641 126.384 142.34 126.384C142.04 126.384 141.743 126.454 141.475 126.59L86.3251 158.425C86.072 158.589 85.8613 158.81 85.71 159.071C85.5588 159.331 85.4715 159.624 85.4551 159.925Z" fill="#37474F"/>
<path d="M89.5352 158.925V163.32C89.2342 163.326 88.9367 163.255 88.6702 163.115L86.3402 161.77C86.0874 161.606 85.8769 161.385 85.7257 161.124C85.5745 160.864 85.487 160.571 85.4702 160.27V159.925C85.4866 159.624 85.574 159.331 85.7252 159.071C85.8764 158.81 86.0871 158.589 86.3402 158.425L87.5052 157.75L89.5352 158.925Z" fill="#263238"/>
<path d="M92.5654 164.03V164.375C92.5828 164.675 92.6701 164.967 92.8203 165.228C92.9705 165.488 93.1794 165.71 93.4304 165.875L95.7604 167.22C96.0296 167.355 96.3267 167.426 96.6279 167.426C96.9292 167.426 97.2263 167.355 97.4954 167.22L152.63 135.385C152.883 135.221 153.093 135 153.243 134.739C153.394 134.478 153.48 134.186 153.495 133.885V133.54C153.48 133.24 153.393 132.947 153.243 132.686C153.092 132.426 152.883 132.204 152.63 132.04L150.3 130.695C150.032 130.559 149.736 130.489 149.435 130.489C149.135 130.489 148.839 130.559 148.57 130.695L93.4304 162.53C93.1786 162.695 92.969 162.916 92.8187 163.177C92.6684 163.437 92.5817 163.73 92.5654 164.03Z" fill="#37474F"/>
<path d="M96.6303 163.03V167.425C96.3294 167.43 96.0321 167.359 95.7653 167.22L93.4353 165.875C93.1843 165.71 92.9753 165.488 92.8251 165.227C92.675 164.967 92.5877 164.675 92.5703 164.375V164.03C92.5865 163.73 92.6733 163.437 92.8236 163.177C92.9739 162.916 93.1834 162.695 93.4353 162.53L94.6003 161.855L96.6303 163.03Z" fill="#263238"/>
<path d="M99.675 168.13V168.5C99.6905 168.801 99.7769 169.093 99.9273 169.354C100.078 169.615 100.288 169.836 100.54 170L102.87 171.345C103.137 171.483 103.434 171.555 103.735 171.555C104.036 171.555 104.333 171.483 104.6 171.345L159.74 139.5C159.991 139.335 160.201 139.113 160.351 138.853C160.501 138.592 160.588 138.3 160.605 138V137.655C160.589 137.355 160.502 137.062 160.352 136.802C160.201 136.541 159.992 136.32 159.74 136.155L157.41 134.81C157.141 134.675 156.844 134.604 156.543 134.604C156.241 134.604 155.944 134.675 155.675 134.81L100.535 166.63C100.284 166.795 100.076 167.017 99.9266 167.278C99.7773 167.538 99.6911 167.83 99.675 168.13Z" fill="#37474F"/>
<path d="M103.735 167.13V171.53C103.434 171.535 103.136 171.463 102.87 171.32L100.535 170C100.283 169.836 100.073 169.615 99.9224 169.354C99.772 169.093 99.6856 168.801 99.6702 168.5V168.155C99.6868 167.855 99.7737 167.562 99.924 167.302C100.074 167.041 100.284 166.82 100.535 166.655L101.7 165.985L103.735 167.13Z" fill="#263238"/>
<path d="M84.29 133.8L139.43 101.97C139.905 101.69 140.295 101.915 140.295 102.47V105.16C140.278 105.46 140.19 105.752 140.04 106.012C139.89 106.273 139.681 106.495 139.43 106.66L84.29 138.5C83.815 138.775 83.425 138.555 83.425 138V135.3C83.4421 135 83.5292 134.708 83.6794 134.447C83.8296 134.187 84.0387 133.965 84.29 133.8Z" fill="#455A64"/>
<path d="M84.29 142.025L139.43 110.195C139.905 109.92 140.295 110.14 140.295 110.695V113.385C140.278 113.685 140.191 113.977 140.041 114.238C139.891 114.498 139.681 114.72 139.43 114.885L84.29 146.715C83.815 146.995 83.425 146.77 83.425 146.215V143.525C83.4424 143.225 83.5297 142.933 83.6799 142.673C83.8301 142.412 84.039 142.19 84.29 142.025Z" fill="#455A64"/>
<path d="M84.29 150.255L139.43 118.42C139.905 118.145 140.295 118.365 140.295 118.92V121.61C140.278 121.91 140.191 122.202 140.041 122.463C139.891 122.723 139.681 122.945 139.43 123.11L84.29 154.945C83.815 155.22 83.425 154.995 83.425 154.445V151.755C83.4413 151.455 83.528 151.162 83.6783 150.902C83.8286 150.641 84.0382 150.42 84.29 150.255Z" fill="#455A64"/>
<path d="M90.3851 160.77L145.535 128.935C145.641 128.901 145.734 128.834 145.799 128.745C145.865 128.655 145.9 128.546 145.9 128.435C145.9 128.324 145.865 128.215 145.799 128.126C145.734 128.036 145.641 127.969 145.535 127.935L143.205 126.59C142.937 126.454 142.641 126.384 142.34 126.384C142.04 126.384 141.743 126.454 141.475 126.59L86.3251 158.425C86.2192 158.459 86.1267 158.526 86.0611 158.616C85.9955 158.705 85.9602 158.814 85.9602 158.925C85.9602 159.036 85.9955 159.145 86.0611 159.235C86.1267 159.324 86.2192 159.391 86.3251 159.425L88.6551 160.77C88.9233 160.906 89.2196 160.977 89.5201 160.977C89.8207 160.977 90.117 160.906 90.3851 160.77Z" fill="#455A64"/>
<path d="M97.4951 164.875L152.63 133.04C152.736 133.006 152.829 132.939 152.894 132.849C152.96 132.76 152.995 132.651 152.995 132.54C152.995 132.429 152.96 132.32 152.894 132.23C152.829 132.141 152.736 132.074 152.63 132.04L150.3 130.695C150.032 130.559 149.736 130.488 149.435 130.488C149.135 130.488 148.838 130.559 148.57 130.695L93.4301 162.53C93.3266 162.566 93.2369 162.634 93.1735 162.724C93.11 162.813 93.0759 162.92 93.0759 163.03C93.0759 163.14 93.11 163.247 93.1735 163.336C93.2369 163.426 93.3266 163.494 93.4301 163.53L95.7601 164.875C96.0293 165.01 96.3264 165.081 96.6276 165.081C96.9289 165.081 97.226 165.01 97.4951 164.875Z" fill="#455A64"/>
<path d="M104.6 169L159.74 137.17C159.844 137.134 159.933 137.066 159.997 136.976C160.06 136.887 160.094 136.78 160.094 136.67C160.094 136.56 160.06 136.453 159.997 136.364C159.933 136.274 159.844 136.206 159.74 136.17L157.41 134.825C157.141 134.69 156.844 134.619 156.543 134.619C156.241 134.619 155.944 134.69 155.675 134.825L100.535 166.63C100.035 166.91 100.035 167.355 100.535 167.63L102.865 168.975C103.131 169.118 103.428 169.195 103.73 169.199C104.032 169.203 104.33 169.135 104.6 169Z" fill="#455A64"/>
<path d="M87.4002 133.61C87.2382 133.717 87.1036 133.861 87.0072 134.029C86.9109 134.197 86.8553 134.386 86.8452 134.58C86.8452 134.935 87.0952 135.08 87.4002 134.9C87.563 134.795 87.6986 134.652 87.7959 134.485C87.8933 134.317 87.9495 134.129 87.9602 133.935C87.9602 133.58 87.7102 133.435 87.4002 133.61Z" fill="#263238"/>
<path d="M87.4002 141.82C87.2389 141.927 87.1047 142.069 87.0083 142.237C86.912 142.404 86.8561 142.592 86.8452 142.785C86.8452 143.14 87.0952 143.285 87.4002 143.11C87.563 143.005 87.6986 142.862 87.7959 142.695C87.8933 142.527 87.9495 142.339 87.9602 142.145C87.9602 141.785 87.7102 141.645 87.4002 141.82Z" fill="#263238"/>
<path d="M87.4002 150.03C87.2386 150.136 87.1042 150.279 87.0078 150.446C86.9114 150.614 86.8557 150.802 86.8452 150.995C86.8452 151.35 87.0952 151.495 87.4002 151.315C87.5633 151.21 87.6991 151.068 87.7965 150.9C87.8938 150.732 87.9499 150.544 87.9602 150.35C87.9602 150 87.7102 149.85 87.4002 150.03Z" fill="#263238"/>
<path d="M136.155 113.745C135.993 113.85 135.858 113.993 135.761 114.161C135.665 114.328 135.609 114.517 135.6 114.71C135.6 115.065 135.845 115.21 136.155 115.03C136.318 114.925 136.454 114.783 136.551 114.615C136.649 114.447 136.705 114.259 136.715 114.065C136.715 113.71 136.465 113.565 136.155 113.745Z" fill="#263238"/>
<path d="M136.155 105.745C135.993 105.85 135.858 105.993 135.761 106.161C135.665 106.328 135.609 106.517 135.6 106.71C135.6 107.065 135.845 107.21 136.155 107.03C136.318 106.925 136.454 106.783 136.551 106.615C136.649 106.447 136.705 106.259 136.715 106.065C136.715 105.71 136.465 105.565 136.155 105.745Z" fill="#263238"/>
<path d="M136.155 121.95C135.993 122.056 135.858 122.198 135.762 122.366C135.665 122.534 135.61 122.722 135.6 122.915C135.6 123.275 135.845 123.415 136.155 123.24C136.318 123.135 136.453 122.992 136.551 122.825C136.648 122.657 136.704 122.469 136.715 122.275C136.715 121.92 136.465 121.775 136.155 121.95Z" fill="#263238"/>
<path d="M92.035 156.8C91.765 156.96 91.765 157.21 92.035 157.365C92.1888 157.447 92.3606 157.49 92.535 157.49C92.7095 157.49 92.8812 157.447 93.035 157.365C93.305 157.21 93.305 156.96 93.035 156.8C92.8804 156.72 92.709 156.679 92.535 156.679C92.361 156.679 92.1896 156.72 92.035 156.8Z" fill="#263238"/>
<path d="M99.1551 160.94C99.0968 160.961 99.0464 160.999 99.0108 161.05C98.9752 161.1 98.9561 161.161 98.9561 161.223C98.9561 161.284 98.9752 161.345 99.0108 161.395C99.0464 161.446 99.0968 161.484 99.1551 161.505C99.3097 161.585 99.4811 161.626 99.6551 161.626C99.8291 161.626 100.001 161.585 100.155 161.505C100.213 161.484 100.264 161.446 100.299 161.395C100.335 161.345 100.354 161.284 100.354 161.223C100.354 161.161 100.335 161.1 100.299 161.05C100.264 160.999 100.213 160.961 100.155 160.94C100.001 160.86 99.8291 160.819 99.6551 160.819C99.4811 160.819 99.3097 160.86 99.1551 160.94Z" fill="#263238"/>
<path d="M106.285 165.075C106.015 165.235 106.01 165.485 106.285 165.645C106.44 165.725 106.611 165.767 106.785 165.767C106.959 165.767 107.131 165.725 107.285 165.645C107.56 165.485 107.56 165.235 107.285 165.075C107.131 164.995 106.959 164.954 106.785 164.954C106.611 164.954 106.44 164.995 106.285 165.075Z" fill="#263238"/>
<path d="M140.725 128.705C140.455 128.865 140.45 129.115 140.725 129.275C140.88 129.355 141.051 129.396 141.225 129.396C141.399 129.396 141.571 129.355 141.725 129.275C142 129.115 142 128.865 141.725 128.705C141.571 128.625 141.399 128.584 141.225 128.584C141.051 128.584 140.88 128.625 140.725 128.705Z" fill="#263238"/>
<path d="M147.85 132.845C147.792 132.866 147.742 132.904 147.706 132.955C147.67 133.005 147.651 133.066 147.651 133.128C147.651 133.189 147.67 133.25 147.706 133.3C147.742 133.351 147.792 133.389 147.85 133.41C148.005 133.49 148.176 133.531 148.35 133.531C148.524 133.531 148.696 133.49 148.85 133.41C148.908 133.389 148.959 133.351 148.994 133.3C149.03 133.25 149.049 133.189 149.049 133.128C149.049 133.066 149.03 133.005 148.994 132.955C148.959 132.904 148.908 132.866 148.85 132.845C148.696 132.765 148.524 132.724 148.35 132.724C148.176 132.724 148.005 132.765 147.85 132.845Z" fill="#263238"/>
<path d="M154.98 137C154.71 137.155 154.71 137.405 154.98 137.565C155.135 137.645 155.306 137.686 155.48 137.686C155.654 137.686 155.826 137.645 155.98 137.565C156.25 137.405 156.25 137.155 155.98 137C155.826 136.918 155.655 136.875 155.48 136.875C155.306 136.875 155.134 136.918 154.98 137Z" fill="#263238"/>
<path d="M111.815 119.605C111.652 119.71 111.516 119.852 111.419 120.02C111.321 120.188 111.265 120.376 111.255 120.57C111.255 120.925 111.505 121.07 111.815 120.89C111.976 120.784 112.111 120.641 112.207 120.474C112.304 120.306 112.359 120.118 112.37 119.925C112.37 119.57 112.12 119.425 111.815 119.605Z" fill="#263238"/>
<path d="M111.815 127.81C111.652 127.916 111.516 128.059 111.419 128.228C111.321 128.396 111.265 128.586 111.255 128.78C111.255 129.135 111.505 129.28 111.815 129.1C111.976 128.994 112.11 128.851 112.207 128.683C112.303 128.516 112.359 128.328 112.37 128.135C112.37 127.78 112.12 127.635 111.815 127.81Z" fill="#263238"/>
<path d="M111.815 136C111.652 136.105 111.516 136.248 111.419 136.415C111.322 136.583 111.266 136.771 111.255 136.965C111.255 137.32 111.505 137.465 111.815 137.29C111.977 137.183 112.111 137.04 112.208 136.871C112.304 136.703 112.36 136.514 112.37 136.32C112.37 136 112.12 135.845 111.815 136Z" fill="#263238"/>
<path d="M116.38 142.775C116.322 142.796 116.272 142.834 116.236 142.885C116.2 142.935 116.181 142.996 116.181 143.058C116.181 143.119 116.2 143.18 116.236 143.23C116.272 143.281 116.322 143.319 116.38 143.34C116.534 143.422 116.706 143.465 116.88 143.465C117.055 143.465 117.226 143.422 117.38 143.34C117.65 143.185 117.65 142.935 117.38 142.775C117.226 142.695 117.054 142.654 116.88 142.654C116.706 142.654 116.535 142.695 116.38 142.775Z" fill="#263238"/>
<path d="M123.535 146.915C123.477 146.936 123.426 146.974 123.391 147.025C123.355 147.075 123.336 147.136 123.336 147.197C123.336 147.259 123.355 147.32 123.391 147.37C123.426 147.421 123.477 147.459 123.535 147.48C123.69 147.56 123.861 147.601 124.035 147.601C124.209 147.601 124.38 147.56 124.535 147.48C124.593 147.459 124.644 147.421 124.679 147.37C124.715 147.32 124.734 147.259 124.734 147.197C124.734 147.136 124.715 147.075 124.679 147.025C124.644 146.974 124.593 146.936 124.535 146.915C124.38 146.835 124.209 146.794 124.035 146.794C123.861 146.794 123.69 146.835 123.535 146.915Z" fill="#263238"/>
<path d="M130.64 151.05C130.37 151.21 130.365 151.46 130.64 151.615C130.794 151.697 130.965 151.74 131.14 151.74C131.314 151.74 131.486 151.697 131.64 151.615C131.915 151.46 131.915 151.21 131.64 151.05C131.485 150.97 131.314 150.929 131.14 150.929C130.966 150.929 130.795 150.97 130.64 151.05Z" fill="#263238"/>
<path d="M187.99 119.035H198.67C199.431 119.035 200.161 118.733 200.7 118.194C201.238 117.656 201.54 116.926 201.54 116.165V93.45C201.54 91.2726 200.675 89.1843 199.136 87.6446C197.596 86.105 195.508 85.24 193.33 85.24C191.154 85.2413 189.067 86.1069 187.528 87.6464C185.99 89.1859 185.125 91.2734 185.125 93.45V116.165C185.125 116.925 185.427 117.655 185.964 118.193C186.501 118.731 187.23 119.034 187.99 119.035Z" fill="#263238"/>
<path d="M186.495 109.13L183.73 142C183.73 142 189.88 145.33 196.73 142.525V113.25L186.495 109.13Z" fill="#73895D"/>
<path opacity="0.6" d="M186.495 109.13L183.73 142C183.73 142 189.88 145.33 196.73 142.525V113.25L186.495 109.13Z" fill="white"/>
<path d="M212.535 166.17C213.18 165.835 213.59 166.67 214.18 167.315C214.59 167.78 215.235 168.51 215.33 169.04C215.47 169.82 214.765 171.04 213.985 171.725C213.205 172.41 212.305 172.89 212.02 174.375C211.948 175.056 211.684 175.701 211.259 176.238C210.834 176.774 210.266 177.179 209.62 177.405C207.935 178.13 205.675 177.905 204.91 177.405C204 176.82 204.83 176.175 206.105 174.355C207.765 171.98 209.055 170.28 209.055 168.065L212.535 166.17Z" fill="#73895D"/>
<path d="M211.22 164.225L212.585 166.225C212.875 166.639 212.99 167.152 212.904 167.65C212.817 168.148 212.538 168.592 212.125 168.885L212.08 168.915C211.667 169.165 211.179 169.261 210.702 169.187C210.224 169.113 209.788 168.873 209.47 168.51L207.345 166.19L211.22 164.225Z" fill="#F28F8F"/>
<path d="M186.715 126.3C186.63 128.845 186.18 138.13 188.04 143.005C189.065 145.774 190.359 148.435 191.905 150.95C192.46 151.9 208.405 167.45 208.405 167.45C208.405 167.45 211.11 167.25 211.545 164.63C211.545 164.63 205.01 153.52 203.595 151.24C202.18 148.96 197.165 145.47 197.165 145.47L197.62 124.11L186.715 126.3Z" fill="#73895D"/>
<path opacity="0.4" d="M186.715 126.3C186.63 128.845 186.18 138.13 188.04 143.005C189.065 145.774 190.359 148.435 191.905 150.95C192.46 151.9 208.405 167.45 208.405 167.45C208.405 167.45 211.11 167.25 211.545 164.63C211.545 164.63 205.01 153.52 203.595 151.24C202.18 148.96 197.165 145.47 197.165 145.47L197.62 124.11L186.715 126.3Z" fill="black"/>
<path d="M190.811 174.582L187.438 173.815L186.321 178.725L189.695 179.492L190.811 174.582Z" fill="#F28F8F"/>
<path d="M192.335 134.075C191.181 133.008 190.149 131.818 189.255 130.525C186.675 126.965 187.075 123.8 187.075 123.8H188.13L202.075 124.085C203.455 126.35 203.76 129.79 203.29 133.135C202.32 140.085 196.565 152.135 196.565 152.135C196.65 153.085 197.065 157.075 196.145 160.635C194.715 166.225 190.815 175.675 190.815 175.675C190.815 175.675 188.375 176.025 187.165 174.61C187.165 174.61 189.32 155.42 189.9 150.505C190.535 145.14 192.335 134.075 192.335 134.075Z" fill="#73895D"/>
<path opacity="0.4" d="M192.335 134.075C191.181 133.008 190.149 131.818 189.255 130.525C186.675 126.965 187.075 123.8 187.075 123.8H188.13L202.075 124.085C203.455 126.35 203.76 129.79 203.29 133.135C202.32 140.085 196.565 152.135 196.565 152.135C196.65 153.085 197.065 157.075 196.145 160.635C194.715 166.225 190.815 175.675 190.815 175.675C190.815 175.675 188.375 176.025 187.165 174.61C187.165 174.61 189.32 155.42 189.9 150.505C190.535 145.14 192.335 134.075 192.335 134.075Z" fill="black"/>
<path d="M201.34 113.625C201.195 113.375 196.865 107.31 201.315 104.185C198.955 105.46 198.815 107.185 198.815 108.85C198.835 110.42 199.48 111.73 201.34 113.625Z" fill="#F28F8F"/>
<path d="M186.706 177.055L186.816 176.555C186.461 176.625 184.951 179.135 183.446 180.23C181.806 181.425 180.376 182.13 179.641 182.67C178.641 183.395 180.081 184.87 182.501 185C183.701 185.065 185.886 184.7 186.561 184.06C187.236 183.42 187.721 182.365 188.256 181.905C188.791 181.445 189.871 181.04 190.256 180.455C190.462 179.874 190.533 179.253 190.466 178.64C190.466 178.005 190.426 177.315 190.211 177.325C190.211 177.395 190.126 177.69 190.126 177.69C189.492 178.012 188.786 178.169 188.076 178.145C187.486 178.13 186.426 178 186.706 177.055Z" fill="#73895D"/>
<path opacity="0.17" d="M190.33 147.2C190.33 147.2 191.955 135.655 192.33 134.075C192.33 134.075 189.465 132.985 188.585 131.98C188.585 131.98 189.215 133.38 191.265 134.625L190.33 147.2Z" fill="#73895D"/>
<path opacity="0.17" d="M198.99 146.86C198.99 146.86 197.265 151.16 196.565 152.11C196.565 152.11 196.74 155.38 196.715 156.04L197.62 156.83C197.646 155.348 197.51 153.868 197.215 152.415L198.99 146.86Z" fill="#73895D"/>
<path d="M187.5 114.355C187.28 116.355 186.715 126.3 186.715 126.3C193.385 129.86 201.66 127.505 202.93 126.035C202.267 123.615 200.973 121.415 199.18 119.66L201.345 113.63C201.345 113.63 201.6 113.01 201.595 113.005C201.455 112.76 198.435 109.36 201.3 103.96L197.405 103.605L191.705 103.44C190.465 103.51 189.58 103.63 189.58 103.63C188.785 104.375 187.53 106.42 186.715 108.505C186.19 109.845 185.48 112.39 187.5 114.355Z" fill="white"/>
<path d="M188.535 88.815C187.67 89.315 186.595 91.51 186.705 96.08C186.79 99.955 188.05 100.91 188.68 101.19C189.31 101.47 190.525 101.295 191.71 101.1V103.425C191.71 103.425 190.075 105.32 190.175 106.39C190.275 107.46 192.535 107.705 194.065 106.665C195.172 105.809 196.124 104.771 196.88 103.595L196.855 98.245C196.855 98.245 197.55 98.92 198.73 97.89C199.705 97.04 200.035 95.605 199.275 94.835C199.079 94.6513 198.842 94.517 198.583 94.4432C198.324 94.3694 198.052 94.3581 197.788 94.4104C197.524 94.4627 197.277 94.5769 197.066 94.7438C196.855 94.9107 196.687 95.1253 196.575 95.37C195.024 95.306 193.513 94.8557 192.18 94.06C191.202 93.535 190.362 92.7862 189.729 91.8747C189.095 90.9631 188.686 89.9147 188.535 88.815Z" fill="#FFA8A7"/>
<path d="M191.035 95.105C191.035 95.2039 191.064 95.3005 191.119 95.3828C191.174 95.465 191.252 95.5291 191.344 95.5669C191.435 95.6048 191.535 95.6147 191.632 95.5954C191.729 95.5761 191.819 95.5285 191.888 95.4585C191.958 95.3886 192.006 95.2995 192.025 95.2025C192.045 95.1055 192.035 95.005 191.997 94.9136C191.959 94.8223 191.895 94.7442 191.813 94.6892C191.73 94.6343 191.634 94.605 191.535 94.605C191.402 94.605 191.275 94.6577 191.181 94.7514C191.088 94.8452 191.035 94.9724 191.035 95.105Z" fill="#263238"/>
<path d="M190.92 98.39L189.785 98.75C189.806 98.8261 189.841 98.8973 189.89 98.9594C189.939 99.0214 189.999 99.0731 190.068 99.1113C190.137 99.1495 190.213 99.1735 190.292 99.1819C190.37 99.1903 190.449 99.1828 190.525 99.16C190.677 99.1064 190.802 98.9967 190.876 98.8536C190.949 98.7104 190.965 98.5445 190.92 98.39Z" fill="#F28F8F"/>
<path d="M187.035 93.61L188.035 92.93C187.994 92.8632 187.94 92.8054 187.876 92.7603C187.812 92.7153 187.739 92.6838 187.662 92.6679C187.585 92.6519 187.506 92.6519 187.429 92.6677C187.352 92.6836 187.28 92.715 187.215 92.76C187.082 92.8515 186.989 92.9908 186.955 93.149C186.922 93.3073 186.95 93.4723 187.035 93.61Z" fill="#263238"/>
<path d="M187.28 94.755C187.272 94.8861 187.315 95.0151 187.401 95.1143C187.487 95.2134 187.609 95.2748 187.74 95.285C187.872 95.285 188 95.2323 188.093 95.1386C188.187 95.0448 188.24 94.9176 188.24 94.785C188.248 94.654 188.204 94.5249 188.118 94.4258C188.032 94.3266 187.911 94.2652 187.78 94.255C187.647 94.255 187.52 94.3077 187.426 94.4015C187.332 94.4952 187.28 94.6224 187.28 94.755Z" fill="#263238"/>
<path d="M189.58 94.475L189.5 97.41L187.96 96.93L189.58 94.475Z" fill="#F28F8F"/>
<path d="M191.73 101.1C192.975 100.935 195.535 100.2 195.935 99.1851C195.779 99.7062 195.464 100.166 195.035 100.5C194.265 101.155 191.725 101.895 191.725 101.895L191.73 101.1Z" fill="#F28F8F"/>
<path d="M200.47 116.06L196.72 120.875L199.18 119.66L200.47 116.06Z" fill="#73895D"/>
<path d="M200.13 89.365L202.03 88.365C201.972 88.2346 201.887 88.1174 201.782 88.0208C201.677 87.9241 201.553 87.8501 201.418 87.8032C201.283 87.7564 201.14 87.7377 200.998 87.7483C200.855 87.759 200.716 87.7987 200.59 87.865C200.336 88.0086 200.146 88.2443 200.061 88.5233C199.975 88.8024 200 89.1037 200.13 89.365Z" fill="#263238"/>
<path d="M200.17 89.375L202.04 90.46C202.117 90.341 202.17 90.2074 202.194 90.0675C202.218 89.9275 202.213 89.7842 202.18 89.6462C202.146 89.5081 202.085 89.3783 202 89.2647C201.915 89.151 201.808 89.0558 201.685 88.985C201.431 88.842 201.131 88.8028 200.849 88.8755C200.567 88.9481 200.323 89.1271 200.17 89.375Z" fill="#263238"/>
<path d="M188.035 164.225C188.035 164.225 186.65 174.285 186.295 175.915C185.94 177.545 183.345 179.68 181.17 181.135C179.17 182.46 178.62 183.005 179.325 184.54C180.495 186.04 183.55 185.72 185.23 185.04C186.91 184.36 187.775 182.695 189.495 181.895C190.815 181.28 191.15 180.81 191.105 179.145C191.04 176.525 194.67 165.95 194.67 165.95C193.845 164.165 189.825 163.395 188.035 164.225Z" fill="#73895D"/>
<path d="M202.36 161.74C203.76 163.28 208.195 167.45 208.685 168.125C209.345 169.03 208.185 170.84 207.51 172.095C206.695 173.595 204.485 175.75 204.41 176.57C204.335 177.39 204.91 177.89 206.07 178.115C207.23 178.34 209.81 178.19 211.165 176.645C212.52 175.1 212.78 173.56 213.535 172.595C214.29 171.63 215.745 170.195 215.535 169.21C215.365 168.45 214.325 167.12 212.93 165.495C211.535 163.87 207.35 157.495 207.35 157.495C207.035 159.245 204.22 161.665 202.36 161.74Z" fill="#73895D"/>
<path d="M191.105 179.13C190.741 179.958 190.065 180.61 189.225 180.945C188.36 181.35 187.01 182.665 186.33 183.28C185.205 184.305 182.78 185.075 181.105 184.685C182.109 184.967 183.171 184.967 184.175 184.685C185.272 184.414 186.266 183.828 187.035 183C187.691 182.336 188.432 181.763 189.24 181.295C189.925 181.03 190.9 180.405 191.09 179.615L191.105 179.13Z" fill="#73895D"/>
<path opacity="0.1" d="M191.105 179.13C190.741 179.958 190.065 180.61 189.225 180.945C188.36 181.35 187.01 182.665 186.33 183.28C185.205 184.305 182.78 185.075 181.105 184.685C182.109 184.967 183.171 184.967 184.175 184.685C185.272 184.414 186.266 183.828 187.035 183C187.691 182.336 188.432 181.763 189.24 181.295C189.925 181.03 190.9 180.405 191.09 179.615L191.105 179.13Z" fill="black"/>
<path d="M215.105 168.3C214.992 169.305 214.52 170.235 213.775 170.92C213.012 171.759 212.378 172.708 211.895 173.735C210.895 175.645 209.95 177.125 207.895 177.49C208.828 177.453 209.716 177.08 210.395 176.44C211.175 175.67 211.79 174.749 212.205 173.735C212.67 172.825 213.228 171.965 213.87 171.17C214.621 170.49 215.118 169.575 215.28 168.575L215.105 168.3Z" fill="#73895D"/>
<path opacity="0.1" d="M215.105 168.3C214.992 169.305 214.52 170.235 213.775 170.92C213.012 171.759 212.378 172.708 211.895 173.735C210.895 175.645 209.95 177.125 207.895 177.49C208.828 177.453 209.716 177.08 210.395 176.44C211.175 175.67 211.79 174.749 212.205 173.735C212.67 172.825 213.228 171.965 213.87 171.17C214.621 170.49 215.118 169.575 215.28 168.575L215.105 168.3Z" fill="black"/>
<path d="M196.9 103.34L201.3 103.705C201.3 103.705 199.35 108.955 201.595 113.005L200.62 118.155V120.13C200.62 120.13 203.21 124.39 203.69 128.17C204.17 131.95 204.04 143.385 204.04 143.385C204.04 143.385 198.88 145.97 193.83 144.24C193.83 144.24 194.395 113.325 195.275 109.145C196.155 104.965 196.9 103.34 196.9 103.34Z" fill="#73895D"/>
<path opacity="0.7" d="M196.9 103.34L201.3 103.705C201.3 103.705 199.35 108.955 201.595 113.005L200.62 118.155V120.13C200.62 120.13 203.21 124.39 203.69 128.17C204.17 131.95 204.04 143.385 204.04 143.385C204.04 143.385 198.88 145.97 193.83 144.24C193.83 144.24 194.395 113.325 195.275 109.145C196.155 104.965 196.9 103.34 196.9 103.34Z" fill="white"/>
<path d="M196.66 134L196.565 142C196.565 142 199.73 142.53 202.01 141.5C202.01 141.5 201.17 142.555 199.01 142.675C196.85 142.795 196.035 142.5 196.035 142.5L196.66 134Z" fill="#73895D"/>
<path d="M201.285 114.635C200.574 112.901 200.07 111.088 199.785 109.235C199.613 111.5 200.05 113.77 201.05 115.81L201.285 114.635Z" fill="#73895D"/>
<path d="M191.73 103.425C189.663 105.004 187.891 106.935 186.495 109.13C186.495 109.13 186.79 105.43 187.25 104.525C187.8 103.44 189.37 103.14 191.75 103.105L191.73 103.425Z" fill="#73895D"/>
<path opacity="0.6" d="M191.73 103.425C189.663 105.004 187.891 106.935 186.495 109.13C186.495 109.13 186.79 105.43 187.25 104.525C187.8 103.44 189.37 103.14 191.75 103.105L191.73 103.425Z" fill="white"/>
<path d="M204.875 120.675C202.545 122.27 199.575 124.41 197.26 124.945C196.842 125.04 196.404 124.975 196.03 124.765C195.03 124.225 194.315 124.19 193.305 123.93C192.515 123.725 192.145 123.375 192.015 123.53C191.889 123.728 191.841 123.966 191.882 124.198C191.923 124.429 192.049 124.637 192.235 124.78C192.637 125.104 193.075 125.381 193.54 125.605C192.622 125.742 191.688 125.726 190.775 125.56C188.675 125.195 188.495 126.65 189.07 128.02C189.73 129.585 191.295 130.02 195.19 129.32C196.688 128.996 198.153 128.532 199.565 127.935C202.614 126.632 205.581 125.146 208.45 123.485" fill="#FFA8A7"/>
<path d="M201.3 103.705C202.035 103.741 202.748 103.969 203.367 104.367C203.986 104.764 204.491 105.317 204.83 105.97C205.595 107.245 208.33 116.065 209.76 121.47C209.871 121.883 209.839 122.322 209.669 122.715C209.499 123.108 209.202 123.432 208.825 123.635C207.585 124.305 205.5 125.485 204.055 126.135C203.583 124.754 202.994 123.416 202.295 122.135L203.85 121.075L201.285 114.65C201.285 114.65 197.9 108.4 201.3 103.705Z" fill="#73895D"/>
<path opacity="0.7" d="M201.3 103.705C202.035 103.741 202.748 103.969 203.367 104.367C203.986 104.764 204.491 105.317 204.83 105.97C205.595 107.245 208.33 116.065 209.76 121.47C209.871 121.883 209.839 122.322 209.669 122.715C209.499 123.108 209.202 123.432 208.825 123.635C207.585 124.305 205.5 125.485 204.055 126.135C203.583 124.754 202.994 123.416 202.295 122.135L203.85 121.075L201.285 114.65C201.285 114.65 197.9 108.4 201.3 103.705Z" fill="white"/>
<path d="M219.495 154.635C219.829 154.635 220.1 154.364 220.1 154.03C220.1 153.696 219.829 153.425 219.495 153.425C219.161 153.425 218.89 153.696 218.89 154.03C218.89 154.364 219.161 154.635 219.495 154.635Z" fill="#73895D"/>
<path d="M220.29 156.205C220.24 156.206 220.192 156.192 220.15 156.164C220.109 156.136 220.078 156.096 220.06 156.05L219.26 154.125C219.235 154.063 219.235 153.994 219.261 153.933C219.287 153.871 219.336 153.823 219.398 153.798C219.459 153.772 219.528 153.773 219.59 153.798C219.651 153.824 219.7 153.873 219.725 153.935L220.52 155.86C220.533 155.89 220.54 155.923 220.54 155.955C220.54 155.988 220.534 156.021 220.521 156.051C220.509 156.081 220.49 156.109 220.467 156.132C220.443 156.155 220.416 156.173 220.385 156.185C220.355 156.199 220.323 156.206 220.29 156.205Z" fill="#37474F"/>
<path d="M220.065 153.84L210.67 126.515L205.17 128.72L218.965 154.32L220.065 153.84Z" fill="#73895D"/>
<path d="M205.595 129C205.935 128.325 205.095 127.17 205.595 126.64C206.095 126.11 206.855 126.97 207.49 126.695C208.255 126.365 208.1 125.265 208.625 125.195C209.365 125.11 209.67 126.665 210.53 126.695L205.595 129Z" fill="#73895D"/>
<path opacity="0.2" d="M205.595 129C205.935 128.325 205.095 127.17 205.595 126.64C206.095 126.11 206.855 126.97 207.49 126.695C208.255 126.365 208.1 125.265 208.625 125.195C209.365 125.11 209.67 126.665 210.53 126.695L205.595 129Z" fill="black"/>
<path d="M202.93 121.685L203.495 121.3C203.495 121.3 204.145 120.625 204.65 121.685C205.08 122.61 206.775 126.365 207.405 127.76C207.435 127.827 207.479 127.886 207.533 127.935C207.588 127.984 207.652 128.022 207.721 128.045C207.791 128.068 207.864 128.076 207.937 128.069C208.01 128.062 208.081 128.04 208.145 128.005C208.259 127.939 208.345 127.833 208.387 127.708C208.428 127.582 208.422 127.446 208.37 127.325C207.74 125.93 205.825 121.655 205.595 121.08C205.315 120.385 204.715 119.405 203.445 120.08C203.304 120.149 203.178 120.246 203.075 120.365C202.972 120.484 202.894 120.623 202.846 120.773C202.798 120.923 202.781 121.081 202.795 121.237C202.81 121.394 202.855 121.546 202.93 121.685Z" fill="#37474F"/>
<path d="M205.955 127.8C205.125 128.85 205.51 129.37 206.4 129.465C207.124 129.521 207.851 129.41 208.526 129.143C209.201 128.875 209.806 128.457 210.295 127.92C211.12 126.87 210.96 126.71 209.64 126.515C208.967 126.402 208.277 126.461 207.633 126.686C206.989 126.91 206.412 127.294 205.955 127.8Z" fill="#73895D"/>
<path opacity="0.2" d="M205.955 127.8C205.125 128.85 205.51 129.37 206.4 129.465C207.124 129.521 207.851 129.41 208.526 129.143C209.201 128.875 209.806 128.457 210.295 127.92C211.12 126.87 210.96 126.71 209.64 126.515C208.967 126.402 208.277 126.461 207.633 126.686C206.989 126.91 206.412 127.294 205.955 127.8Z" fill="black"/>
<path d="M206.93 129.495L218.065 151.145L207.345 128.995L206.93 129.495Z" fill="#73895D"/>
<path opacity="0.2" d="M206.93 129.495L218.065 151.145L207.345 128.995L206.93 129.495Z" fill="black"/>
<path d="M209.89 127.8L217.325 148.17L209.4 128.34L209.89 127.8Z" fill="#73895D"/>
<path opacity="0.2" d="M209.89 127.8L217.325 148.17L209.4 128.34L209.89 127.8Z" fill="black"/>
<path d="M207.535 129.435C207.86 129.365 206.95 127.505 207.68 127.145C208.41 126.785 209.135 128.78 209.5 128.645C209.528 128.893 209.483 129.144 209.369 129.366C209.255 129.589 209.078 129.773 208.86 129.895C208.145 130.195 207.535 129.435 207.535 129.435Z" fill="#73895D"/>
<path d="M210.035 128.205C210.23 128.045 209.565 125.915 210.35 125.555L211.29 128.32L210.035 128.205Z" fill="#73895D"/>
<path d="M206.93 129.5C206.705 129.59 206.29 128.965 205.93 128.425C205.57 127.885 204.97 127.575 204.65 127.74L205.6 129.5C205.6 129.5 206.415 130.115 206.93 129.5Z" fill="#73895D"/>
</svg>
