<svg width="76" height="31" viewBox="0 0 76 31" fill="none" xmlns="http://www.w3.org/2000/svg">
<mask id="path-1-inside-1_1_752" fill="white">
<path d="M0.149513 7.31488L8.17049 8.09258C12.0053 8.4644 14.8126 11.8745 14.4408 15.7093L6.41982 14.9316C2.58501 14.5598 -0.222302 11.1497 0.149513 7.31488Z"/>
<path d="M0.637067 2.28679L4.11697 2.62419C10.4597 3.23917 15.103 8.87955 14.4881 15.2223L14.4408 15.7093L10.9609 15.3719C4.61816 14.7569 -0.0251348 9.11656 0.589848 2.77379L0.637067 2.28679Z"/>
<path d="M9.41281 15.2218L8.63511 23.2428C8.2633 27.0776 4.85316 29.8849 1.01835 29.5131L1.79605 21.4921C2.16786 17.6573 5.57801 14.85 9.41281 15.2218Z"/>
<path d="M14.4408 15.7093L14.1034 19.1892C13.4884 25.532 7.84802 30.1753 1.50525 29.5603L1.01835 29.5131L1.35565 26.0332C1.97063 19.6904 7.61101 15.0471 13.9538 15.6621L14.4408 15.7093Z"/>
<path d="M22.8352 1.41807L22.0575 9.43904C21.6856 13.2738 18.2756 16.0812 14.4408 15.7093L15.2184 7.68837C15.5902 3.85356 19.0003 1.04625 22.8352 1.41807Z"/>
<path d="M27.8633 1.90559L27.5259 5.38549C26.9109 11.7283 21.2705 16.3716 14.9277 15.7566L14.4408 15.7093L14.7781 12.2295C15.3931 5.88668 21.0335 1.24339 27.3763 1.85837L27.8633 1.90559Z"/>
<path d="M28.7319 24.1038L20.7109 23.3261C16.8761 22.9543 14.069 19.5442 14.4408 15.7093L22.4616 16.4871C26.2964 16.8589 29.1037 20.269 28.7319 24.1038Z"/>
<path d="M28.2445 29.1319L24.7646 28.7945C18.4218 28.1795 13.7785 22.5391 14.3935 16.1964L14.4408 15.7093L17.9206 16.0468C24.2634 16.6618 28.9067 22.3021 28.2917 28.6449L28.2445 29.1319Z"/>
</mask>
<path d="M0.149513 7.31488L0.706275 1.57258L-5.03603 1.01582L-5.59279 6.75812L0.149513 7.31488ZM6.41982 14.9316L5.86305 20.674H5.86305L6.41982 14.9316ZM8.17049 8.09258L8.72725 2.35028V2.35028L8.17049 8.09258ZM0.637067 2.28679L1.19383 -3.45552L-4.54847 -4.01228L-5.10524 1.73002L0.637067 2.28679ZM10.9609 15.3719L11.5177 9.62962L11.5177 9.62962L10.9609 15.3719ZM0.589848 2.77379L-5.15245 2.21703V2.21703L0.589848 2.77379ZM4.11697 2.62419L4.67373 -3.11811L4.11697 2.62419ZM14.4881 15.2223L20.2303 15.7795L20.2304 15.7791L14.4881 15.2223ZM9.41281 15.2218L15.1551 15.7786L15.7119 10.0363L9.96957 9.47953L9.41281 15.2218ZM1.01835 29.5131L-4.72397 28.9565L-5.28053 34.6986L0.461492 35.2554L1.01835 29.5131ZM1.79605 21.4921L-3.94625 20.9354L1.79605 21.4921ZM8.63511 23.2428L2.89281 22.686L8.63511 23.2428ZM1.35565 26.0332L-4.38665 25.4764L-4.38667 25.4766L1.35565 26.0332ZM13.9538 15.6621L14.5106 9.91982L14.5105 9.91982L13.9538 15.6621ZM14.1034 19.1892L8.36108 18.6325L8.36107 18.6325L14.1034 19.1892ZM1.50525 29.5603L0.94839 35.3026L0.948486 35.3026L1.50525 29.5603ZM22.8352 1.41807L28.5775 1.97483L29.1342 -3.76747L23.3919 -4.32423L22.8352 1.41807ZM15.2184 7.68837L9.47609 7.13161L9.47608 7.13168L15.2184 7.68837ZM22.0575 9.43904L16.3152 8.88228V8.88228L22.0575 9.43904ZM27.8633 1.90559L33.6056 2.46235L34.1623 -3.27994L28.42 -3.83671L27.8633 1.90559ZM14.7781 12.2295L9.03585 11.6727L9.03584 11.6728L14.7781 12.2295ZM27.3763 1.85837L27.933 -3.88393H27.933L27.3763 1.85837ZM27.5259 5.38549L33.2682 5.94226V5.94226L27.5259 5.38549ZM14.9277 15.7566L14.3708 21.4989L14.371 21.4989L14.9277 15.7566ZM28.7319 24.1038L28.1752 29.8461L33.9175 30.4029L34.4742 24.6606L28.7319 24.1038ZM22.4616 16.4871L21.9048 22.2294L21.9049 22.2294L22.4616 16.4871ZM20.7109 23.3261L21.2677 17.5838L20.7109 23.3261ZM28.2445 29.1319L27.6877 34.8742L33.43 35.431L33.9868 29.6887L28.2445 29.1319ZM17.9206 16.0468L17.3638 21.7891L17.3639 21.7891L17.9206 16.0468ZM28.2917 28.6449L34.034 29.2017V29.2017L28.2917 28.6449ZM24.7646 28.7945L25.3214 23.0522H25.3214L24.7646 28.7945ZM14.3935 16.1964L8.65127 15.6391L8.65122 15.6396L14.3935 16.1964ZM-0.407249 13.0572L7.61373 13.8349L8.72725 2.35028L0.706275 1.57258L-0.407249 13.0572ZM14.9976 9.96704L6.97658 9.18935L5.86305 20.674L13.884 21.4516L14.9976 9.96704ZM6.97658 9.18935C6.31316 9.12502 5.82749 8.53507 5.89182 7.87165L-5.59279 6.75812C-6.2721 13.7643 -1.14314 19.9946 5.86305 20.674L6.97658 9.18935ZM7.61373 13.8349C8.27715 13.8992 8.76281 14.4892 8.69849 15.1526L20.1831 16.2661C20.8624 9.25991 15.7334 3.02958 8.72725 2.35028L7.61373 13.8349ZM0.0803045 8.02909L3.56021 8.36649L4.67373 -3.11811L1.19383 -3.45552L0.0803045 8.02909ZM8.74579 14.6651L8.69853 15.1521L20.183 16.2666L20.2303 15.7795L8.74579 14.6651ZM14.9976 9.96705L11.5177 9.62962L10.4041 21.1142L13.884 21.4516L14.9976 9.96705ZM6.33215 3.33055L6.37937 2.84355L-5.10524 1.73002L-5.15245 2.21703L6.33215 3.33055ZM11.5177 9.62962C8.34631 9.32212 6.02466 6.50194 6.33215 3.33055L-5.15245 2.21703C-6.07493 11.7312 0.890012 20.1917 10.4042 21.1142L11.5177 9.62962ZM3.56021 8.36649C6.73159 8.67398 9.05324 11.4942 8.74575 14.6656L20.2304 15.7791C21.1528 6.26492 14.1879 -2.19564 4.67373 -3.11811L3.56021 8.36649ZM3.67051 14.6651L2.89281 22.686L14.3774 23.7996L15.1551 15.7786L3.67051 14.6651ZM6.76065 30.0699L7.53835 22.0489L-3.94625 20.9354L-4.72395 28.9563L6.76065 30.0699ZM7.53835 22.0489C7.60267 21.3855 8.19263 20.8998 8.85605 20.9641L9.96957 9.47953C2.96338 8.80022 -3.26695 13.9292 -3.94625 20.9354L7.53835 22.0489ZM2.89281 22.686C2.82849 23.3495 2.23853 23.8351 1.57511 23.7708L0.461588 35.2554C7.46778 35.9347 13.6981 30.8058 14.3774 23.7996L2.89281 22.686ZM8.69849 15.1526L8.36108 18.6325L19.8457 19.746L20.1831 16.2661L8.69849 15.1526ZM2.06211 23.818L1.57521 23.7708L0.461492 35.2554L0.94839 35.3026L2.06211 23.818ZM6.76067 30.0697L7.09797 26.5898L-4.38667 25.4766L-4.72397 28.9565L6.76067 30.0697ZM13.3969 21.4044L13.8839 21.4516L14.9976 9.96705L14.5106 9.91982L13.3969 21.4044ZM7.09795 26.59C7.40544 23.4186 10.2256 21.0969 13.397 21.4044L14.5105 9.91982C4.99638 8.99734 -3.46418 15.9623 -4.38665 25.4764L7.09795 26.59ZM8.36107 18.6325C8.05358 21.8039 5.23339 24.1255 2.06201 23.818L0.948486 35.3026C10.4626 36.2251 18.9232 29.2602 19.8457 19.746L8.36107 18.6325ZM17.0928 0.861305L16.3152 8.88228L27.7998 9.99581L28.5775 1.97483L17.0928 0.861305ZM20.1831 16.266L20.9607 8.24506L9.47608 7.13168L8.69848 15.1527L20.1831 16.266ZM20.9607 8.24513C21.025 7.58171 21.615 7.09605 22.2784 7.16037L23.3919 -4.32423C16.3857 -5.00354 10.1554 0.125417 9.47609 7.13161L20.9607 8.24513ZM16.3152 8.88228C16.2508 9.5458 15.6609 10.0314 14.9976 9.96704L13.884 21.4516C20.8903 22.131 27.1205 17.0019 27.7998 9.9958L16.3152 8.88228ZM22.121 1.34883L21.7836 4.82873L33.2682 5.94226L33.6056 2.46235L22.121 1.34883ZM15.4847 10.0143L14.9978 9.96706L13.8838 21.4516L14.3708 21.4989L15.4847 10.0143ZM20.1831 16.266L20.5205 12.7861L9.03584 11.6728L8.69848 15.1527L20.1831 16.266ZM26.8195 7.60068L27.3065 7.6479L28.42 -3.83671L27.933 -3.88393L26.8195 7.60068ZM20.5205 12.7862C20.8279 9.61483 23.6481 7.29319 26.8195 7.60068L27.933 -3.88393C18.4189 -4.8064 9.95832 2.15854 9.03585 11.6727L20.5205 12.7862ZM21.7836 4.82873C21.4761 8.00012 18.6559 10.3218 15.4845 10.0143L14.371 21.4989C23.8851 22.4214 32.3457 15.4564 33.2682 5.94226L21.7836 4.82873ZM29.2887 18.3615L21.2677 17.5838L20.1542 29.0684L28.1752 29.8461L29.2887 18.3615ZM13.884 21.4516L21.9048 22.2294L23.0184 10.7448L14.9976 9.96704L13.884 21.4516ZM21.9049 22.2294C22.5683 22.2937 23.0539 22.8836 22.9896 23.5471L34.4742 24.6606C35.1535 17.6544 30.0246 11.4241 23.0184 10.7448L21.9049 22.2294ZM21.2677 17.5838C20.6045 17.5195 20.1188 16.9297 20.1831 16.2661L8.69849 15.1526C8.0192 22.1586 13.1478 28.3891 20.1542 29.0684L21.2677 17.5838ZM28.8013 23.3896L25.3214 23.0522L24.2078 34.5368L27.6877 34.8742L28.8013 23.3896ZM20.1358 16.7536L20.183 16.2666L8.69854 15.1521L8.65127 15.6391L20.1358 16.7536ZM13.884 21.4516L17.3638 21.7891L18.4774 10.3045L14.9976 9.96705L13.884 21.4516ZM22.5494 28.0881L22.5022 28.5751L33.9868 29.6887L34.034 29.2017L22.5494 28.0881ZM17.3639 21.7891C20.5353 22.0966 22.8569 24.9167 22.5494 28.0881L34.034 29.2017C34.9565 19.6875 27.9916 11.2269 18.4774 10.3045L17.3639 21.7891ZM25.3214 23.0522C22.15 22.7447 19.8283 19.9245 20.1358 16.7531L8.65122 15.6396C7.72875 25.1538 14.6937 33.6143 24.2078 34.5368L25.3214 23.0522Z" fill="#73895D" mask="url(#path-1-inside-1_1_752)"/>
<path opacity="0.9" d="M47.6539 22.975L46.2289 22.95C46.0289 22.95 45.8289 22.95 45.6289 22.95L41.0789 23.175C40.8289 23.175 40.7039 23.0917 40.7039 22.925C40.7039 22.875 40.7289 22.7583 40.7789 22.575C40.9455 22.1917 41.0622 20.975 41.1289 18.925C41.2122 16.875 41.2539 15.0083 41.2539 13.325C41.2539 11.625 41.2205 10.25 41.1539 9.2C41.0539 7.61667 40.8872 6.66667 40.6539 6.35C40.4705 6.11667 40.3789 5.96667 40.3789 5.9C40.3789 5.63333 40.8289 5.4 41.7289 5.2C42.6289 5 43.2705 4.9 43.6539 4.9C44.0539 4.9 44.3039 4.925 44.4039 4.975C44.5039 5.00833 44.5539 5.09167 44.5539 5.225C44.5539 5.35833 44.5205 5.78333 44.4539 6.5C44.2872 8.61667 44.2039 11.0833 44.2039 13.9C44.2039 16.7 44.2705 18.9417 44.4039 20.625C44.4039 20.8083 44.5622 20.9667 44.8789 21.1C45.1955 21.2333 45.5872 21.3 46.0539 21.3C47.6872 21.3 48.5039 20.0417 48.5039 17.525C48.5039 16.825 48.4622 16.3917 48.3789 16.225C48.3122 16.0583 48.2789 15.95 48.2789 15.9C48.2789 15.7333 48.3955 15.65 48.6289 15.65C48.8122 15.65 49.0539 15.7417 49.3539 15.925C49.6705 16.1083 49.9289 16.3417 50.1289 16.625C50.3289 16.8917 50.5122 17.325 50.6789 17.925C50.8455 18.5083 50.9289 19.2 50.9289 20C50.9289 21.9833 50.6872 22.975 50.2039 22.975C49.3539 22.975 48.5039 22.975 47.6539 22.975ZM54.2361 16.65L54.2611 17.275C54.2611 17.375 54.3278 17.425 54.4611 17.425C54.9944 17.375 55.4611 17.2417 55.8611 17.025C56.2611 16.7917 56.5611 16.5333 56.7611 16.25C57.1611 15.6333 57.3778 15.1 57.4111 14.65L57.4361 14.35C57.4361 13.45 57.0778 13 56.3611 13C55.8278 13 55.3944 13.2333 55.0611 13.7C54.5111 14.4333 54.2361 15.4167 54.2361 16.65ZM59.6861 19.975C59.6861 20.6083 59.5528 21.1667 59.2861 21.65C59.0361 22.1167 58.7444 22.4667 58.4111 22.7C58.0944 22.9167 57.7194 23.0917 57.2861 23.225C56.7361 23.3917 56.2111 23.475 55.7111 23.475C54.3111 23.475 53.2778 22.95 52.6111 21.9C51.9444 20.85 51.6111 19.5167 51.6111 17.9C51.6111 16.2667 52.0194 14.8167 52.8361 13.55C53.6694 12.2833 54.9111 11.65 56.5611 11.65C58.0611 11.65 59.0778 12.175 59.6111 13.225C59.8278 13.625 59.9361 14.0083 59.9361 14.375C59.9361 14.725 59.9194 15.0083 59.8861 15.225C59.8528 15.425 59.7361 15.7333 59.5361 16.15C59.3361 16.5667 59.0694 16.9417 58.7361 17.275C58.4028 17.6083 57.8778 17.925 57.1611 18.225C56.4444 18.525 55.6028 18.725 54.6361 18.825C54.5028 18.825 54.4361 18.8833 54.4361 19C54.4361 19.15 54.4861 19.375 54.5861 19.675C54.7028 19.9583 54.8278 20.2 54.9611 20.4C55.3278 20.8667 55.8694 21.1 56.5861 21.1C57.3028 21.1 57.9111 20.8667 58.4111 20.4C58.6778 20.15 58.8944 19.8417 59.0611 19.475C59.1278 19.3417 59.2111 19.275 59.3111 19.275C59.4278 19.275 59.5194 19.3667 59.5861 19.55C59.6528 19.7333 59.6861 19.875 59.6861 19.975ZM69.0734 15.5L69.0234 18.7C69.0234 20.9167 69.2651 22.25 69.7484 22.7C69.8151 22.7667 69.8484 22.8417 69.8484 22.925C69.8484 23.175 69.3067 23.3 68.2234 23.3C67.1567 23.3 66.5901 22.9833 66.5234 22.35C66.5067 22.2 66.4984 21.8917 66.4984 21.425L66.5984 17.425C66.5984 17.3083 66.5317 17.25 66.3984 17.25C65.5984 17.25 64.8484 17.475 64.1484 17.925C63.4484 18.375 63.0984 18.95 63.0984 19.65C63.0984 20.0167 63.1984 20.325 63.3984 20.575C63.5984 20.825 63.8401 20.95 64.1234 20.95C64.4234 20.95 64.6651 20.8917 64.8484 20.775C65.0484 20.6583 65.1651 20.5917 65.1984 20.575C65.4817 20.6083 65.6234 20.9083 65.6234 21.475C65.6234 22.025 65.3651 22.475 64.8484 22.825C64.3317 23.1583 63.7901 23.325 63.2234 23.325C62.6567 23.325 62.1651 23.225 61.7484 23.025C61.3484 22.825 61.0567 22.6 60.8734 22.35C60.6901 22.1 60.5401 21.8167 60.4234 21.5C60.3067 21.1167 60.2484 20.7833 60.2484 20.5C60.2484 19.3333 60.6151 18.4 61.3484 17.7C62.0817 17 63.0234 16.5 64.1734 16.2C65.6901 15.9 66.4817 15.625 66.5484 15.375C66.5984 15.1917 66.6234 14.8833 66.6234 14.45C66.6234 13.5667 66.1734 13.125 65.2734 13.125C64.8901 13.125 64.5484 13.25 64.2484 13.5C63.9484 13.7333 63.7984 14.0333 63.7984 14.4L63.9484 15C63.9151 15.2833 63.6151 15.45 63.0484 15.5L62.7734 15.525C62.2734 15.525 61.8734 15.4 61.5734 15.15C61.2901 14.9 61.1484 14.5667 61.1484 14.15C61.1484 13.8833 61.2317 13.5917 61.3984 13.275C61.5817 12.9417 61.8067 12.675 62.0734 12.475C62.3401 12.275 62.7484 12.1 63.2984 11.95C63.8651 11.7833 64.4067 11.7 64.9234 11.7C65.4401 11.7 65.8401 11.7167 66.1234 11.75C66.4067 11.7833 66.7901 11.8667 67.2734 12C67.7734 12.1167 68.1817 12.35 68.4984 12.7C68.8317 13.05 69.0067 13.425 69.0234 13.825C69.0567 14.2083 69.0734 14.7667 69.0734 15.5ZM73.8367 16.75L73.9617 21.75C73.9617 22.8 73.82 23.725 73.5367 24.525C73.27 25.3417 72.9367 25.95 72.5367 26.35C71.72 27.2 71.0033 27.6833 70.3867 27.8L69.9617 27.9C69.7117 27.9 69.5867 27.825 69.5867 27.675L69.7117 27.3C70.9283 25.6167 71.5367 21.4833 71.5367 14.9C71.5367 14.3 71.5283 13.85 71.5117 13.55C71.1617 13.55 70.8117 13.575 70.4617 13.625H70.4367C70.2533 13.625 70.1617 13.5333 70.1617 13.35L70.2367 12.4C70.2533 12.25 70.37 12.175 70.5867 12.175H71.4867V10.5L71.5367 8.125C71.5367 8.00833 71.5533 7.88333 71.5867 7.75C71.6367 7.6 71.82 7.38333 72.1367 7.1C72.4533 6.8 72.92 6.53333 73.5367 6.3C74.1533 6.05 74.6783 5.925 75.1117 5.925C75.5617 5.925 75.7867 6.05833 75.7867 6.325C75.7867 6.425 75.7117 6.50833 75.5617 6.575C75.0783 6.725 74.6783 7.15833 74.3617 7.875C74.0617 8.575 73.9117 9.775 73.9117 11.475V12.175C74.7617 12.1417 75.32 12.1 75.5867 12.05C75.7033 12.05 75.7617 12.15 75.7617 12.35C75.7617 12.55 75.67 12.8 75.4867 13.1C75.32 13.3833 75.1033 13.5333 74.8367 13.55C74.5867 13.55 74.27 13.5417 73.8867 13.525C73.8533 14.7917 73.8367 15.8667 73.8367 16.75Z" fill="#020D19"/>
</svg>
