<svg width="21" height="21" viewBox="0 0 21 21" fill="none" xmlns="http://www.w3.org/2000/svg">
<g opacity="0.5">
<path d="M5.86841 7.58337L8.32009 9.03287C9.74941 9.87796 10.3207 9.87796 11.7501 9.03287L14.2017 7.58337" stroke="black" stroke-width="1.5" stroke-linecap="round" stroke-linejoin="round"/>
<path d="M1.71504 11.7297C1.76953 14.2842 1.79676 15.5616 2.73937 16.5077C3.68198 17.454 4.99385 17.4869 7.6176 17.5528C9.23466 17.5935 10.8358 17.5935 12.4529 17.5528C15.0767 17.4869 16.3885 17.454 17.3311 16.5077C18.2737 15.5616 18.301 14.2842 18.3554 11.7297C18.373 10.9082 18.373 10.0917 18.3554 9.27032C18.301 6.71568 18.2737 5.43837 17.3311 4.49218C16.3885 3.54599 15.0767 3.51303 12.4529 3.4471C10.8358 3.40647 9.23466 3.40647 7.61759 3.44709C4.99385 3.51301 3.68198 3.54597 2.73937 4.49217C1.79676 5.43836 1.76952 6.71567 1.71504 9.27023C1.69753 10.0917 1.69753 10.9082 1.71504 11.7297Z" stroke="black" stroke-width="1.5" stroke-linejoin="round"/>
</g>
</svg>
