<svg width="21" height="21" viewBox="0 0 21 21" fill="none" xmlns="http://www.w3.org/2000/svg">
<g opacity="0.5">
<path d="M5.51647 13.4013C4.33749 14.1033 1.24629 15.5367 3.12904 17.3305C4.04875 18.2066 5.07307 18.8333 6.36088 18.8333H13.7094C14.9972 18.8333 16.0216 18.2066 16.9412 17.3305C18.824 15.5367 15.7328 14.1033 14.5538 13.4013C11.7892 11.7551 8.28115 11.7551 5.51647 13.4013Z" stroke="black" stroke-width="1.5" stroke-linecap="round" stroke-linejoin="round"/>
<path d="M13.7852 5.91663C13.7852 7.98769 12.1062 9.66663 10.0352 9.66663C7.96409 9.66663 6.28516 7.98769 6.28516 5.91663C6.28516 3.84556 7.96409 2.16663 10.0352 2.16663C12.1062 2.16663 13.7852 3.84556 13.7852 5.91663Z" stroke="black" stroke-width="1.5"/>
</g>
</svg>
